<svg width="23" height="22" viewBox="0 0 23 22" fill="none" xmlns="http://www.w3.org/2000/svg">
<g id="elements">
<g id="Icon">
<path d="M9.43595 13.4369C9.15244 13.1349 8.67781 13.1199 8.37582 13.4034C8.07384 13.6869 8.05886 14.1616 8.34237 14.4635C9.06912 15.2376 10.1826 15.7002 11.3892 15.7002C12.5958 15.7002 13.7092 15.2376 14.436 14.4635C14.7195 14.1616 14.7045 13.6869 14.4025 13.4034C14.1005 13.1199 13.6259 13.1349 13.3424 13.4369C12.929 13.8772 12.2272 14.2002 11.3892 14.2002C10.5512 14.2002 9.84936 13.8772 9.43595 13.4369Z" fill="#252B37"/>
<path d="M7.38916 9.9502C7.38916 9.39791 7.83688 8.9502 8.38916 8.9502H8.39812C8.95041 8.9502 9.39812 9.39791 9.39812 9.9502C9.39812 10.5025 8.95041 10.9502 8.39812 10.9502H8.38916C7.83688 10.9502 7.38916 10.5025 7.38916 9.9502Z" fill="#252B37"/>
<path d="M14.3892 8.9502C13.8369 8.9502 13.3892 9.39791 13.3892 9.9502C13.3892 10.5025 13.8369 10.9502 14.3892 10.9502H14.3981C14.9504 10.9502 15.3981 10.5025 15.3981 9.9502C15.3981 9.39791 14.9504 8.9502 14.3981 8.9502H14.3892Z" fill="#252B37"/>
<path fill-rule="evenodd" clip-rule="evenodd" d="M4.63916 1.9502C4.63916 0.983697 5.42266 0.200195 6.38916 0.200195C7.35566 0.200195 8.13916 0.983697 8.13916 1.9502C8.13916 2.64829 7.7304 3.25092 7.13916 3.53179V5.25472C7.89073 5.20016 8.78445 5.20018 9.83263 5.2002H12.9456C13.9938 5.20018 14.8876 5.20016 15.6392 5.25472V3.53179C15.0479 3.25092 14.6392 2.64829 14.6392 1.9502C14.6392 0.983697 15.4227 0.200195 16.3892 0.200195C17.3557 0.200195 18.1392 0.983697 18.1392 1.9502C18.1392 2.64829 17.7304 3.25092 17.1392 3.53179V5.5021C17.6774 5.66529 18.1489 5.92329 18.5497 6.33791C19.1471 6.95584 19.403 7.73136 19.5231 8.65511C19.5646 8.9746 19.5913 9.32528 19.6084 9.70881C21.0247 9.82052 22.1392 11.0052 22.1392 12.4502C22.1392 13.9076 21.0054 15.1002 19.5718 15.1942C19.5584 15.356 19.5423 15.5109 19.5231 15.6591C19.403 16.5828 19.1471 17.3583 18.5497 17.9763C18.0654 18.4773 17.4171 18.7401 16.7533 18.8883C16.6879 18.9029 16.6346 18.9148 16.5888 18.9256C16.5994 18.9887 16.6158 19.0598 16.637 19.1427L16.6516 19.199L16.659 19.2269C16.6766 19.2938 16.6972 19.3717 16.7114 19.4324C16.7814 19.7317 16.8371 20.0293 16.8458 20.299C16.8542 20.5566 16.8251 20.9068 16.6053 21.2098C16.3611 21.5464 16.0015 21.6678 15.6866 21.6939C15.39 21.7185 15.0643 21.6674 14.7372 21.5884C14.1588 21.4486 13.6125 21.1003 13.1671 20.7492C12.7097 20.3886 12.2953 19.9738 11.9784 19.6288C11.7134 19.3402 11.5878 19.2435 11.4872 19.1946C11.3999 19.1522 11.2652 19.114 10.9145 19.114H9.83267C8.46651 19.114 7.36266 19.114 6.49403 18.9932C5.58918 18.8674 4.82937 18.5978 4.2286 17.9763C3.63126 17.3583 3.37531 16.5828 3.25525 15.6591C3.23599 15.5109 3.21993 15.356 3.20653 15.1942C1.77289 15.1002 0.63916 13.9076 0.63916 12.4502C0.63916 11.0052 1.75364 9.82052 3.16992 9.70881C3.18706 9.32528 3.21373 8.9746 3.25525 8.65511C3.37531 7.73136 3.63126 6.95584 4.2286 6.33791C4.62939 5.9233 5.10096 5.66529 5.63916 5.50211V3.53179C5.04792 3.25092 4.63916 2.64829 4.63916 1.9502ZM6.38916 1.7002C6.25109 1.7002 6.13916 1.81212 6.13916 1.9502C6.13916 2.08827 6.25109 2.2002 6.38916 2.2002C6.52723 2.2002 6.63916 2.08827 6.63916 1.9502C6.63916 1.81212 6.52723 1.7002 6.38916 1.7002ZM19.6392 12.1035C19.6392 11.7978 19.6392 11.5049 19.638 11.225C20.2091 11.3403 20.6392 11.845 20.6392 12.4502C20.6392 13.057 20.2067 13.5629 19.6332 13.6764C19.6392 13.2252 19.6392 12.7372 19.6392 12.2106V12.1035ZM3.13916 12.2106C3.13915 12.7372 3.13915 13.2252 3.1451 13.6764C2.57158 13.5629 2.13916 13.057 2.13916 12.4502C2.13916 11.845 2.56918 11.3403 3.14032 11.225C3.13915 11.505 3.13916 11.7978 3.13916 12.1036V12.2106ZM16.1392 1.9502C16.1392 1.81212 16.2511 1.7002 16.3892 1.7002C16.5272 1.7002 16.6392 1.81212 16.6392 1.9502C16.6392 2.08827 16.5272 2.2002 16.3892 2.2002C16.2511 2.2002 16.1392 2.08827 16.1392 1.9502ZM6.70066 6.80667C5.97163 6.90806 5.58499 7.09295 5.30708 7.38044C5.02574 7.67149 4.84236 8.08195 4.74274 8.84843C4.64065 9.63395 4.63916 10.6736 4.63916 12.1571C4.63916 13.6406 4.64065 14.6802 4.74274 15.4658C4.84236 16.2322 5.02574 16.6427 5.30708 16.9337C5.58499 17.2212 5.97163 17.4061 6.70066 17.5075C7.45395 17.6123 8.45303 17.614 9.88916 17.614H10.9145C11.3553 17.614 11.756 17.6575 12.1427 17.8454C12.5159 18.0267 12.8027 18.3087 13.0833 18.6142C13.3697 18.9262 13.724 19.2782 14.0958 19.5712C14.4795 19.8737 14.8229 20.0659 15.0895 20.1303C15.1828 20.1529 15.2627 20.1691 15.3307 20.1803C15.3158 20.075 15.2901 19.9418 15.2509 19.7743C15.2465 19.7559 15.2384 19.7249 15.2279 19.6852C15.1927 19.5518 15.1315 19.3196 15.1029 19.1329C15.0653 18.888 15.0262 18.4367 15.2895 18.0384C15.4531 17.7909 15.6715 17.6552 15.8807 17.5733C16.0439 17.5094 16.2361 17.4667 16.3954 17.4312L16.4265 17.4243C16.9455 17.3084 17.2726 17.1393 17.4712 16.9337C17.7526 16.6427 17.936 16.2322 18.0356 15.4658C18.1377 14.6802 18.1392 13.6406 18.1392 12.1571C18.1392 10.6736 18.1377 9.63395 18.0356 8.84843C17.936 8.08195 17.7526 7.67149 17.4712 7.38044C17.1933 7.09295 16.8067 6.90806 16.0777 6.80667C15.3244 6.7019 14.3253 6.7002 12.8892 6.7002H9.88916C8.45303 6.7002 7.45395 6.7019 6.70066 6.80667Z" fill="#252B37"/>
</g>
</g>
</svg>
