<svg width="28" height="28" viewBox="0 0 28 28" fill="none" xmlns="http://www.w3.org/2000/svg">
<g id="elements">
<g id="Icon">
<path d="M12.7036 14.3242C12.1667 14.3242 11.7314 14.7595 11.7314 15.2964C11.7314 15.8334 12.1667 16.2686 12.7036 16.2686H19.1851C19.7221 16.2686 20.1573 15.8334 20.1573 15.2964C20.1573 14.7595 19.7221 14.3242 19.1851 14.3242H12.7036Z" fill="#161616"/>
<path d="M8.81474 14.3242C8.2778 14.3242 7.84252 14.7595 7.84252 15.2964C7.84252 15.8334 8.2778 16.2686 8.81474 16.2686H8.82639C9.36333 16.2686 9.79861 15.8334 9.79861 15.2964C9.79861 14.7595 9.36333 14.3242 8.82639 14.3242H8.81474Z" fill="#161616"/>
<path d="M8.81474 19.5094C8.2778 19.5094 7.84252 19.9447 7.84252 20.4816C7.84252 21.0186 8.2778 21.4538 8.81474 21.4538H15.2962C15.8332 21.4538 16.2684 21.0186 16.2684 20.4816C16.2684 19.9447 15.8332 19.5094 15.2962 19.5094H8.81474Z" fill="#161616"/>
<path d="M19.1735 19.5094C18.6365 19.5094 18.2012 19.9447 18.2012 20.4816C18.2012 21.0186 18.6365 21.4538 19.1735 21.4538H19.1851C19.7221 21.4538 20.1573 21.0186 20.1573 20.4816C20.1573 19.9447 19.7221 19.5094 19.1851 19.5094H19.1735Z" fill="#161616"/>
<path fill-rule="evenodd" clip-rule="evenodd" d="M7.19437 1.03716C7.19437 0.50022 6.75909 0.0649414 6.22215 0.0649414C5.68521 0.0649414 5.24993 0.50022 5.24993 1.03716V1.86004C4.20672 2.15571 3.32687 2.63627 2.59452 3.428C1.58612 4.51817 1.13788 5.89558 0.923213 7.62171C0.712865 9.31311 0.712877 11.4807 0.712891 14.2465V15.0501C0.712877 17.8158 0.712865 19.9834 0.923213 21.6748C1.13788 23.401 1.58612 24.7784 2.59452 25.8685C3.61289 26.9695 4.91647 27.4687 6.54789 27.7059C8.12682 27.9354 10.1442 27.9353 12.6897 27.9353H15.3102C17.8557 27.9353 19.873 27.9354 21.452 27.7059C23.0834 27.4687 24.387 26.9695 25.4053 25.8685C26.4137 24.7784 26.862 23.401 27.0766 21.6748C27.287 19.9834 27.287 17.8158 27.287 15.05V14.2465C27.287 11.4808 27.287 9.31312 27.0766 7.62171C26.862 5.89558 26.4137 4.51817 25.4053 3.428C24.673 2.63627 23.7931 2.15571 22.7499 1.86004V1.03716C22.7499 0.50022 22.3147 0.0649414 21.7777 0.0649414C21.2408 0.0649414 20.8055 0.50022 20.8055 1.03716V1.51147C19.3328 1.3612 17.5206 1.36122 15.3102 1.36124H12.6897C10.4792 1.36122 8.66704 1.3612 7.19437 1.51147V1.03716ZM4.02194 4.74836C4.35812 4.38492 4.75901 4.10668 5.287 3.89659C5.40297 4.3038 5.77774 4.60198 6.22215 4.60198C6.75909 4.60198 7.19437 4.1667 7.19437 3.62976V3.46718C8.56975 3.3077 10.3474 3.30568 12.7684 3.30568H15.2314C17.6524 3.30568 19.4301 3.3077 20.8055 3.46718V3.62976C20.8055 4.1667 21.2408 4.60198 21.7777 4.60198C22.2221 4.60198 22.5969 4.3038 22.7129 3.89659C23.2408 4.10668 23.6417 4.38492 23.9779 4.74836C24.5901 5.41018 24.953 6.31744 25.1447 7.84272H2.85516C3.0469 6.31744 3.40976 5.41018 4.02194 4.74836ZM2.70779 9.78716C2.65805 11.0276 2.65734 12.5104 2.65734 14.3154V14.9811C2.65734 17.8308 2.65911 19.8774 2.85279 21.4349C3.04391 22.9716 3.40722 23.8836 4.02194 24.5482C4.62669 25.202 5.44085 25.5801 6.82757 25.7816C8.25054 25.9885 10.1264 25.9909 12.7684 25.9909H15.2314C17.8734 25.9909 19.7493 25.9885 21.1723 25.7816C22.559 25.5801 23.3732 25.202 23.9779 24.5482C24.5926 23.8836 24.9559 22.9716 25.1471 21.4349C25.3407 19.8774 25.3425 17.8308 25.3425 14.9811V14.3154C25.3425 12.5104 25.3418 11.0276 25.2921 9.78716H2.70779Z" fill="#161616"/>
</g>
</g>
</svg>
