<svg width="28" height="28" viewBox="0 0 28 28" fill="none" xmlns="http://www.w3.org/2000/svg">
<g id="elements">
<path id="Icon" fill-rule="evenodd" clip-rule="evenodd" d="M5.33683 0.112344C6.07142 0.264172 6.65644 0.757722 7.01991 1.4098L8.17777 3.48704C8.60426 4.25212 8.96318 4.89597 9.19757 5.45568C9.4462 6.0494 9.59387 6.63489 9.52637 7.28221C9.45886 7.92952 9.19357 8.47194 8.82779 9.0016C8.48296 9.5009 7.99893 10.0568 7.42376 10.7175L4.5358 14.0347C6.82615 17.7888 10.2081 21.1723 13.966 23.4649L17.2833 20.577C17.9439 20.0018 18.4998 19.5178 18.9991 19.173C19.5288 18.8072 20.0712 18.5419 20.7185 18.4744C21.3659 18.4069 21.9513 18.5545 22.5451 18.8032C23.1048 19.0376 23.7486 19.3965 24.5137 19.823L26.5909 20.9808C27.243 21.3443 27.7366 21.9293 27.8884 22.6639C28.0418 23.4062 27.8155 24.1523 27.3157 24.7654C25.5023 26.9904 22.597 28.407 19.5491 27.7922C17.6756 27.4142 15.8271 26.7846 13.5914 25.5024C9.09925 22.9262 5.07156 18.8963 2.49832 14.4094C1.21613 12.1736 0.586497 10.3251 0.208571 8.45164C-0.406258 5.40376 1.01038 2.4984 3.23529 0.685004C3.84849 0.185227 4.59457 -0.0410691 5.33683 0.112344ZM15.7771 24.4663C17.2891 25.2113 18.6041 25.6179 19.9336 25.8861C22.1322 26.3296 24.3518 25.3243 25.8085 23.537C25.9998 23.3023 26.0009 23.1385 25.9842 23.0575C25.9659 22.9688 25.8916 22.8171 25.6442 22.6792L23.6136 21.5473C22.7896 21.0881 22.241 20.7839 21.794 20.5967C21.3696 20.419 21.1261 20.3869 20.9202 20.4083C20.7143 20.4298 20.4827 20.5115 20.1041 20.7729C19.7053 21.0484 19.2313 21.4591 18.5198 22.0785L15.7771 24.4663ZM3.53445 12.2236L5.9222 9.48093C6.54162 8.76945 6.95239 8.29544 7.22781 7.89663C7.48925 7.51807 7.57094 7.28643 7.59241 7.08053C7.61388 6.87463 7.58175 6.63111 7.40404 6.20676C7.21682 5.7597 6.91268 5.21115 6.45339 4.38717L5.32149 2.35651C5.18359 2.10911 5.03195 2.03487 4.94326 2.01654C4.86224 1.9998 4.69842 2.00097 4.46375 2.19224C2.67645 3.64897 1.67112 5.86856 2.11462 8.06715C2.3828 9.39661 2.78943 10.7117 3.53445 12.2236Z" fill="#161616"/>
</g>
</svg>
