<svg width="12" height="12" viewBox="0 0 12 12" fill="none" xmlns="http://www.w3.org/2000/svg">
<g id="elements">
<path id="Icon" fill-rule="evenodd" clip-rule="evenodd" d="M0.533812 0.422484C0.75077 0.205526 1.10253 0.205526 1.31949 0.422484L6.11183 5.21483L10.9042 0.422484C11.1211 0.205526 11.4729 0.205526 11.6899 0.422484C11.9068 0.639442 11.9068 0.9912 11.6899 1.20816L6.89751 6.00051L11.6899 10.7929C11.9068 11.0098 11.9068 11.3616 11.6899 11.5785C11.4729 11.7955 11.1211 11.7955 10.9042 11.5785L6.11183 6.78618L1.31949 11.5785C1.10253 11.7955 0.75077 11.7955 0.533812 11.5785C0.316854 11.3616 0.316854 11.0098 0.533812 10.7929L5.32616 6.00051L0.533812 1.20816C0.316854 0.9912 0.316854 0.639442 0.533812 0.422484Z" fill="#D92D20"/>
</g>
</svg>
