<svg width="" height="" viewBox="0 0 30 30" fill="none" xmlns="http://www.w3.org/2000/svg">
<g id="elements">
<g id="Icon">
<path d="M21.0718 11.6751C21.445 11.268 21.4175 10.6354 21.0104 10.2622C20.6032 9.88901 19.9707 9.91651 19.5975 10.3236L12.9699 17.5537L10.3751 14.9589C9.98455 14.5684 9.35139 14.5684 8.96086 14.9589C8.57034 15.3494 8.57034 15.9826 8.96086 16.3731L12.2942 19.7065C12.4871 19.8993 12.7503 20.005 13.023 19.9991C13.2957 19.9932 13.5542 19.8761 13.7385 19.6751L21.0718 11.6751Z" fill=""/>
<path fill-rule="evenodd" clip-rule="evenodd" d="M15.0013 29.3327C7.08522 29.3327 0.667969 22.9154 0.667969 14.9993C0.667969 7.08327 7.08522 0.666016 15.0013 0.666016C22.9174 0.666016 29.3346 7.08327 29.3346 14.9993C29.3346 22.9154 22.9174 29.3327 15.0013 29.3327ZM2.66797 14.9993C2.66797 21.8109 8.18979 27.3327 15.0013 27.3327C21.8128 27.3327 27.3346 21.8109 27.3346 14.9993C27.3346 8.18784 21.8128 2.66602 15.0013 2.66602C8.18979 2.66602 2.66797 8.18784 2.66797 14.9993Z" fill=""/>
</g>
</g>
</svg>
