<svg width="" height="" viewBox="0 0 22 22" fill="none" xmlns="http://www.w3.org/2000/svg">
<g id="elements">
<path id="Icon" fill-rule="evenodd" clip-rule="evenodd" d="M0.25 11C0.25 16.937 5.063 21.75 11 21.75C16.937 21.75 21.75 16.937 21.75 11C21.75 5.063 16.937 0.25 11 0.25C5.063 0.25 0.25 5.063 0.25 11ZM15.676 7.26299C16.083 7.63599 16.11 8.26898 15.737 8.67598L10.237 14.676C10.053 14.877 9.794 14.994 9.522 15C9.249 15.006 8.98599 14.9 8.79299 14.707L6.29299 12.207C5.90199 11.817 5.90199 11.183 6.29299 10.793C6.68299 10.402 7.31701 10.402 7.70701 10.793L9.46899 12.554L14.263 7.32402C14.636 6.91702 15.269 6.88999 15.676 7.26299Z" fill=""/>
</g>
</svg>
