<svg width="" height="" viewBox="0 0 34 36" fill="none" xmlns="http://www.w3.org/2000/svg">
<g id="elements">
<path id="Icon" fill-rule="evenodd" clip-rule="evenodd" d="M20.291 0.0839844C17.7227 0.0839844 15.4657 1.41039 13.815 3.42048C12.3718 5.17778 11.3509 7.49662 10.9095 10.0846C9.08535 10.088 7.58204 10.1105 6.362 10.2597C4.88217 10.4405 3.62974 10.8258 2.62363 11.7404C1.60051 12.6705 1.15349 13.8549 0.946517 15.2544C0.749919 16.5838 0.749959 18.2676 0.750008 20.3269L0.750003 22.032C0.749937 23.3819 0.749881 24.531 0.885498 25.448C1.03145 26.4349 1.35644 27.3298 2.13548 28.038C2.89751 28.7308 3.83148 29.0051 4.85745 29.1305C5.84128 29.2507 7.08341 29.2507 8.5865 29.2507L9.13926 29.2506L9.14886 29.5171C9.1689 30.0467 9.19872 30.6358 9.27401 31.2224C9.41926 32.3542 9.75973 33.7212 10.7846 34.6887C11.5184 35.3814 12.4034 35.6661 13.3783 35.7955C14.2966 35.9174 15.4434 35.9174 16.8084 35.9174H24.4831C25.8481 35.9174 26.9951 35.9174 27.9134 35.7955C28.8883 35.6661 29.7733 35.3814 30.507 34.6887C31.2379 33.9988 31.5796 33.1297 31.7788 32.1594C31.9675 31.2399 32.0551 30.0783 32.16 28.6876L33.2057 14.8294C33.2336 14.4623 33.2631 14.0721 33.2435 13.7424C33.2208 13.3611 33.1254 12.8599 32.7324 12.4273C32.3359 11.9908 31.8424 11.8503 31.4593 11.7963C31.1332 11.7504 30.7447 11.7505 30.3853 11.7507L29.8726 11.7507C29.662 8.7844 28.7083 6.08258 27.229 4.02208C25.5458 1.67752 23.1096 0.0839844 20.291 0.0839844ZM3.3586 25.0823C3.26947 24.4796 3.25343 23.6983 3.2506 22.584H14.0828C14.0799 23.6983 14.0639 24.4796 13.9748 25.0823C13.8766 25.7457 13.7135 26.0089 13.5162 26.1882C13.3019 26.383 12.9621 26.5525 12.1726 26.649C11.3584 26.7485 10.2702 26.7507 8.66668 26.7507C7.06313 26.7507 5.97492 26.7485 5.16076 26.649C4.3713 26.5525 4.03144 26.383 3.81716 26.1882C3.61989 26.0089 3.45672 25.7457 3.3586 25.0823ZM3.25006 20.084H14.0833V19.6713C14.0833 19.67 14.0833 19.6687 14.0833 19.6673C14.0833 19.666 14.0833 19.6646 14.0833 19.6633V12.8492C14.0833 12.749 14.0833 12.6625 14.0828 12.5858C13.9658 12.5841 13.8312 12.584 13.6667 12.584H11.9879C9.6051 12.584 7.93117 12.5865 6.6653 12.7412C5.42199 12.8932 4.76368 13.1736 4.30532 13.5903C3.86397 13.9915 3.57876 14.5441 3.41962 15.6202C3.26202 16.6858 3.25081 18.0858 3.25006 20.084ZM16.5833 20.9173V22.032C16.5834 23.3819 16.5835 24.531 16.4479 25.448C16.3019 26.4349 15.9769 27.3298 15.1979 28.038C14.4358 28.7308 13.5019 29.0051 12.4759 29.1305C12.2152 29.1624 11.9363 29.1858 11.6392 29.203L11.6471 29.4226C11.6665 29.9373 11.6933 30.4339 11.7537 30.9042C11.8797 31.8862 12.1266 32.5176 12.5008 32.8708C12.7072 33.0657 13.0106 33.2248 13.7073 33.3173C14.4417 33.4148 15.4213 33.4174 16.8923 33.4174H24.3994C25.8703 33.4174 26.85 33.4148 27.5844 33.3173C28.2811 33.2248 28.5844 33.0657 28.7909 32.8708C29.0003 32.6731 29.1837 32.3684 29.3298 31.6567C29.4826 30.9122 29.5606 29.9112 29.6732 28.4179L30.2392 20.9173H16.5833ZM30.4276 18.4208C30.3965 18.4185 30.365 18.4173 30.3333 18.4173H16.5833L16.5833 14.2507H30.3246C30.4884 14.2507 30.623 14.2507 30.74 14.2525C30.7326 14.3781 30.7217 14.5231 30.7083 14.7011L30.4276 18.4208ZM27.3653 11.7507C27.16 9.27385 26.354 7.09004 25.1982 5.48006C23.8499 3.60212 22.0983 2.58398 20.291 2.58398C18.6398 2.58398 17.0416 3.43066 15.747 5.00712C14.684 6.3015 13.8619 8.05322 13.4522 10.084L13.7214 10.084C14.0659 10.0839 14.4284 10.0838 14.7327 10.121C15.0779 10.1632 15.5342 10.2711 15.9301 10.631C16.312 10.9782 16.4621 11.3984 16.5256 11.7507H27.3653Z" fill=""/>
</g>
</svg>
