<svg width="31" height="30" viewBox="0 0 31 30" fill="none" xmlns="http://www.w3.org/2000/svg">
<g id="elements">
<path id="Icon" d="M6.83321 29.5844C4.93321 29.5844 3.49993 28.1344 2.93327 27.5677C2.1666 26.8011 -0.166795 24.4845 1.51654 21.5845C1.79987 21.0845 2.19993 20.6844 2.93327 19.9511L5.84993 17.0344C6.79993 16.0844 7.54986 15.3344 7.54986 15.0011C7.54986 14.6678 6.79993 13.9178 5.84993 12.9678L2.91658 10.0345C2.18325 9.30114 1.78319 8.90107 1.49986 8.40107C-0.166811 5.50107 2.14992 3.18446 2.91658 2.41779C3.68325 1.65113 5.99986 -0.682267 8.89986 1.00107C9.39986 1.2844 9.79993 1.68446 10.5333 2.41779L13.4499 5.33446C14.3999 6.28446 15.1499 7.03439 15.4832 7.03439C15.8165 7.03439 16.5666 6.28446 17.5166 5.33446L20.4333 2.41779C21.1666 1.68446 21.5666 1.2844 22.0666 1.00107C24.9499 -0.6656 27.2833 1.65113 28.0499 2.41779C28.8166 3.18446 31.1499 5.50107 29.4666 8.40107C29.1832 8.90107 28.7833 9.30114 28.0499 10.0345L25.1333 12.9511C24.1833 13.9011 23.4332 14.6511 23.4332 14.9844C23.4332 15.3178 24.1833 16.0678 25.1333 17.0178L28.0499 19.9345C28.7833 20.6678 29.1832 21.0678 29.4666 21.5678C31.1332 24.4678 28.8166 26.7845 28.0499 27.5512C27.2833 28.3178 24.9666 30.6511 22.0666 28.9678C21.5666 28.6844 21.1666 28.2845 20.4333 27.5512L17.5166 24.6345C16.5666 23.6845 15.8165 22.9345 15.4832 22.9345C15.1499 22.9345 14.3999 23.6845 13.4499 24.6345L10.5333 27.5512C9.79993 28.2845 9.39986 28.6844 8.89986 28.9678C8.16653 29.3844 7.46654 29.5511 6.83321 29.5511V29.5844ZM6.83321 2.91777C6.28321 2.91777 5.63326 3.25112 4.69993 4.18446C3.24993 5.63446 3.23327 6.3844 3.6666 7.15107C3.78327 7.36774 4.13325 7.70114 4.68325 8.26781L7.59991 11.1845C9.11658 12.7011 10.0332 13.6178 10.0332 14.9844C10.0332 16.3511 9.11658 17.2678 7.59991 18.7845L4.68325 21.7011C4.11658 22.2678 3.78325 22.6011 3.64992 22.8178C3.21659 23.5844 3.23323 24.3344 4.66656 25.7844C6.11656 27.2344 6.86661 27.2512 7.63328 26.8178C7.84994 26.7012 8.18325 26.3511 8.74992 25.8011L11.6666 22.8844C13.1832 21.3677 14.0999 20.4511 15.4665 20.4511C16.8332 20.4511 17.7499 21.3677 19.2666 22.8844L22.1832 25.8011C22.7499 26.3677 23.0832 26.7011 23.2999 26.8344C24.0666 27.2677 24.8166 27.2511 26.2666 25.8178C27.7166 24.3678 27.7333 23.6178 27.2999 22.8511C27.1833 22.6345 26.8332 22.3011 26.2832 21.7344L23.3665 18.8177C21.8498 17.3011 20.9332 16.3845 20.9332 15.0178C20.9332 13.6511 21.8498 12.7344 23.3665 11.2177L26.2999 8.28439C26.8665 7.71772 27.1999 7.38442 27.3332 7.16775C27.7665 6.40109 27.7499 5.65114 26.3165 4.20114C24.8665 2.75114 24.1166 2.73448 23.3499 3.16781C23.1333 3.28448 22.7999 3.63446 22.2332 4.18446L19.3165 7.10112C17.7999 8.61779 16.8832 9.53439 15.5166 9.53439C14.1499 9.53439 13.2332 8.61779 11.7165 7.10112L8.79986 4.18446C8.2332 3.61779 7.89989 3.28446 7.68323 3.15113C7.41656 3.00113 7.14989 2.90109 6.84989 2.90109L6.83321 2.91777Z" fill="#111322"/>
</g>
</svg>
