<svg width="" height="" viewBox="0 0 30 28" fill="none" xmlns="http://www.w3.org/2000/svg">
<g id="elements">
<path id="Icon" fill-rule="evenodd" clip-rule="evenodd" d="M14.9997 2.99967C10.5806 2.99967 7.17453 5.82963 6.7184 9.22299C6.90999 9.29842 7.10294 9.38672 7.30064 9.47719L7.4127 9.52839L7.4999 9.56799C7.86349 9.73285 8.21966 9.89434 8.50376 10.1414C9.33426 10.8637 9.33347 11.817 9.33301 12.3683L9.33301 18.2983C9.33347 18.8495 9.33426 19.8029 8.50376 20.5251C8.21966 20.7722 7.86349 20.9337 7.4999 21.0985L7.4127 21.1381L7.30063 21.1893C6.81676 21.4108 6.36142 21.6192 5.88448 21.6577C4.49104 21.7704 3.71053 20.82 3.25199 20.2616L3.21458 20.2161C3.09836 20.0749 2.95526 19.9091 2.80074 19.73C2.51823 19.4026 2.19754 19.031 1.93306 18.6849C1.49618 18.1132 1.05841 17.4281 0.840953 16.6321C0.608106 15.7797 0.608106 14.8868 0.840953 14.0345C0.998749 13.4569 1.28425 12.9471 1.66113 12.4121C2.02609 11.894 2.51777 11.2968 3.12575 10.5584L3.15047 10.5283C3.1754 10.4981 3.2015 10.4659 3.22884 10.4323C3.53677 10.0533 4.00134 9.48155 4.707 9.1881C5.18121 4.48375 9.74109 0.999672 14.9997 0.999673C20.2583 0.999673 24.8182 4.48375 25.2924 9.18811C25.9981 9.48156 26.4626 10.0533 26.7706 10.4323L26.7719 10.4339C26.7987 10.467 26.8244 10.4986 26.8489 10.5283L26.8736 10.5583C27.4816 11.2968 27.9733 11.894 28.3383 12.4121C28.7151 12.9471 29.0006 13.4569 29.1584 14.0345C29.3913 14.8868 29.3913 15.7797 29.1584 16.6321C28.941 17.4281 28.5032 18.1132 28.0663 18.6849C27.8019 19.0309 27.4813 19.4025 27.1988 19.7298C27.0443 19.9089 26.901 20.0749 26.7848 20.2161L26.7474 20.2616C26.4445 20.6305 26.001 21.1706 25.333 21.4621L25.333 21.733C25.333 24.8384 22.2777 26.9997 18.9997 26.9997L16.333 26.9997C15.7807 26.9997 15.333 26.552 15.333 25.9997C15.333 25.4474 15.7807 24.9997 16.333 24.9997L18.9997 24.9997C21.6127 24.9997 23.333 23.3404 23.333 21.733L23.333 21.4637C23.1243 21.3841 22.9144 21.288 22.6988 21.1893L22.5867 21.1381L22.4995 21.0985C22.1359 20.9337 21.7797 20.7722 21.4956 20.5251C20.6651 19.8029 20.6659 18.8496 20.6664 18.2983L20.6664 12.3683C20.6659 11.817 20.6651 10.8637 21.4956 10.1414C21.7797 9.89434 22.1359 9.73285 22.4995 9.56799L22.5867 9.5284L22.6987 9.47719C22.8965 9.38672 23.0894 9.29842 23.281 9.22299C22.8249 5.82963 19.4188 2.99967 14.9997 2.99967ZM24.3569 19.6666C24.3489 19.6664 24.341 19.6663 24.333 19.6663C24.327 19.6663 24.321 19.6664 24.315 19.6665C24.3024 19.6661 24.2895 19.6653 24.2761 19.6643C24.1967 19.6578 24.0867 19.6237 23.4157 19.318C22.9042 19.0851 22.8426 19.046 22.8081 19.016C22.7484 18.9641 22.724 18.9211 22.704 18.8404C22.6746 18.7215 22.6664 18.5634 22.6664 18.2607L22.6664 12.4059C22.6664 12.1032 22.6746 11.9451 22.704 11.8261C22.724 11.7454 22.7484 11.7025 22.8081 11.6505C22.8426 11.6205 22.9042 11.5815 23.4157 11.3485C24.0867 11.0429 24.1967 11.0087 24.2761 11.0023C24.2963 11.0006 24.3156 10.9998 24.3342 10.9997L24.3411 10.9997C24.4709 11.0004 24.5649 11.0399 24.6784 11.1248C24.8565 11.2581 25.0237 11.4581 25.3049 11.7996C25.9433 12.575 26.3867 13.1145 26.7032 13.5639C27.0128 14.0034 27.1568 14.2968 27.2291 14.5615C27.3677 15.0688 27.3677 15.5977 27.2291 16.105C27.1109 16.5376 26.8507 16.9818 26.4772 17.4705C26.2371 17.7848 26.0049 18.0525 25.7594 18.3355C25.5947 18.5255 25.4239 18.7224 25.2408 18.9448C24.9808 19.2606 24.8187 19.4424 24.6577 19.557C24.5596 19.6268 24.4741 19.6632 24.3569 19.6666ZM5.66521 10.9997L5.65828 10.9997C5.52851 11.0004 5.43446 11.0399 5.32099 11.1248C5.14284 11.2581 4.97564 11.4581 4.6945 11.7996C4.05605 12.575 3.61273 13.1145 3.29618 13.5639C2.98661 14.0034 2.84259 14.2968 2.77025 14.5615C2.63167 15.0688 2.63167 15.5977 2.77026 16.105C2.88845 16.5376 3.14871 16.9818 3.52219 17.4705C3.76231 17.7848 3.99446 18.0525 4.23997 18.3356C4.40467 18.5255 4.57546 18.7224 4.75861 18.9448C5.01859 19.2606 5.18069 19.4424 5.34172 19.557C5.46096 19.6418 5.56163 19.6773 5.72326 19.6643C5.80273 19.6578 5.91271 19.6237 6.58369 19.318C7.09516 19.0851 7.1568 19.046 7.19131 19.016C7.25102 18.9641 7.27543 18.9211 7.29537 18.8404C7.32475 18.7215 7.33298 18.5634 7.33298 18.2607L7.33298 12.4059C7.33299 12.1032 7.32475 11.9451 7.29537 11.8261C7.27543 11.7454 7.25102 11.7025 7.19131 11.6505C7.1568 11.6205 7.09516 11.5815 6.58369 11.3485C5.91271 11.0429 5.80272 11.0087 5.72325 11.0023C5.70306 11.0006 5.68377 10.9998 5.66521 10.9997Z" fill=""/>
</g>
</svg>
