<svg width="40" height="40" viewBox="0 0 40 40" fill="none" xmlns="http://www.w3.org/2000/svg">
<g id="door-01">
<g id="Icon">
<path d="M21.2507 18.333C21.2507 17.6427 20.691 17.083 20.0007 17.083C19.3103 17.083 18.7507 17.6427 18.7507 18.333V21.6663C18.7507 22.3567 19.3103 22.9163 20.0007 22.9163C20.691 22.9163 21.2507 22.3567 21.2507 21.6663V18.333Z" fill=""/>
<path fill-rule="evenodd" clip-rule="evenodd" d="M19.2563 2.13539C20.3307 2.03028 21.2962 2.06267 22.2072 2.42506C23.5563 2.96171 24.6745 3.96758 25.3912 5.25598C25.4669 5.39217 25.5356 5.5312 25.5979 5.67326L25.7309 5.65646C26.7103 5.53251 27.903 5.38158 29.003 5.42407C30.5147 5.48248 32.1949 5.9027 33.3802 7.41424C34.0549 8.27458 34.3306 9.29554 34.4593 10.46C34.5841 11.5888 34.5841 13.0119 34.5841 14.7699V25.2296C34.5841 26.9876 34.5841 28.4106 34.4593 29.5395C34.3755 30.2979 34.2293 30.9954 33.9512 31.6274H36.6673C37.3577 31.6274 37.9173 32.187 37.9173 32.8774C37.9173 33.5677 37.3577 34.1274 36.6673 34.1274H31.6673C31.5708 34.1274 31.4768 34.1164 31.3866 34.0957C30.608 34.4188 29.783 34.5452 29.003 34.5754C27.9031 34.6179 26.7106 34.467 25.7312 34.343L25.5979 34.3262C25.5356 34.4683 25.4669 34.6073 25.3912 34.7435C24.6745 36.0319 23.5563 37.0378 22.2072 37.5744C21.2962 37.9368 20.3307 37.9692 19.2563 37.8641C18.2092 37.7616 16.9204 37.5112 15.3191 37.2002L15.2047 37.1779C13.658 36.8775 12.4231 36.6376 11.4305 36.3596C10.4085 36.0735 9.55472 35.7245 8.7934 35.1609C8.55086 34.9814 8.31908 34.7883 8.09881 34.583H3.33398C2.64363 34.583 2.08398 34.0234 2.08398 33.333C2.08398 32.6427 2.64363 32.083 3.33398 32.083H6.2704C6.2154 31.9681 6.16286 31.8517 6.11285 31.7339C5.73945 30.8549 5.57449 29.9196 5.49502 28.8111C5.41731 27.7271 5.41731 26.3941 5.41732 24.707V15.2925C5.41731 13.6053 5.41731 12.2724 5.49502 11.1883C5.57449 10.0799 5.73945 9.14457 6.11285 8.26556C6.6948 6.89558 7.61788 5.70882 8.7934 4.83857C9.55472 4.27495 10.4085 3.92602 11.4305 3.63986C12.4231 3.3619 13.6579 3.12203 15.2046 2.82157L15.3191 2.79933C16.9204 2.48823 18.2092 2.23784 19.2563 2.13539ZM19.4998 4.62351C18.5843 4.71308 17.4117 4.93954 15.7334 5.26557C14.1229 5.57846 12.9879 5.79991 12.1046 6.04726C11.2393 6.28954 10.705 6.53392 10.2809 6.84787C9.47611 7.44368 8.82763 8.26892 8.41385 9.243C8.19122 9.7671 8.05816 10.3971 7.98862 11.3671C7.91806 12.3513 7.91732 13.5948 7.91732 15.3403V24.6592C7.91732 26.4046 7.91806 27.6482 7.98862 28.6324C8.05816 29.6024 8.19122 30.2324 8.41385 30.7565C8.82763 31.7306 9.47611 32.5558 10.2809 33.1516C10.705 33.4656 11.2393 33.7099 12.1046 33.9522C12.9879 34.1996 14.1229 34.421 15.7334 34.7339C17.4117 35.0599 18.5843 35.2864 19.4998 35.376C20.4015 35.4642 20.9067 35.4012 21.2832 35.2515C22.073 34.9373 22.757 34.3361 23.2064 33.5282C23.4316 33.1235 23.5855 32.5641 23.6672 31.581C23.7496 30.5889 23.7507 29.3025 23.7507 27.4846V12.5148C23.7507 10.6969 23.7496 9.41062 23.6672 8.41852C23.5855 7.43533 23.4316 6.876 23.2064 6.47128C22.757 5.66337 22.073 5.06222 21.2832 4.74801C20.9067 4.59827 20.4015 4.53529 19.4998 4.62351ZM26.1586 8.21153L26.1512 8.12544L26.2238 8.11629C27.1503 7.99945 28.0309 7.88839 28.9065 7.92221C30.0573 7.96667 30.8691 8.26332 31.413 8.95697C31.6758 9.29202 31.8688 9.77928 31.9745 10.7347C32.0823 11.7099 32.0841 12.9942 32.0841 14.8441V25.1553C32.0841 27.0052 32.0823 28.2895 31.9745 29.2648C31.8688 30.2202 31.6758 30.7074 31.413 31.0425C30.869 31.7361 30.0573 32.0328 28.9065 32.0772C28.0309 32.1111 27.1503 32 26.2238 31.8832L26.1512 31.874L26.1586 31.788C26.2507 30.6801 26.2507 29.2898 26.2507 27.5414V12.458C26.2507 10.7097 26.2507 9.31938 26.1586 8.21153Z" fill=""/>
</g>
</g>
</svg>
