<svg width="30" height="30" viewBox="0 0 36 36" fill="none" xmlns="http://www.w3.org/2000/svg">
<g id="elements">
<g id="Icon">
<path fill-rule="evenodd" clip-rule="evenodd" d="M23.3405 0.990197C25.3149 -0.183993 27.7498 -0.220789 29.7578 0.894007C30.5907 1.35644 31.3505 2.13309 32.4804 3.28813L32.7873 3.60157C33.9211 4.75913 34.68 5.53386 35.1306 6.38078C36.2116 8.41262 36.1764 10.8706 35.037 12.8698C34.5621 13.7031 33.7811 14.4549 32.6146 15.5777L16.5835 31.0183C14.2821 33.2357 12.8636 34.6025 11.0687 35.3036C9.27119 36.0056 7.31676 35.9542 4.15475 35.8709L3.34316 35.8496C2.87975 35.8376 2.41128 35.8255 2.0245 35.761C1.58028 35.6869 1.05267 35.5165 0.635255 35.0428C0.221575 34.5734 0.115418 34.0315 0.0905785 33.5858C0.0686154 33.1917 0.105507 32.7196 0.142581 32.2452L0.210775 31.3697C0.426247 28.5987 0.557968 26.9048 1.22684 25.3653C1.89659 23.8237 3.04073 22.5845 4.90751 20.5625L20.6883 3.46484C21.7847 2.27617 22.5215 1.47728 23.3405 0.990197ZM28.5443 3.07975C27.3147 2.39711 25.8286 2.41921 24.6184 3.13891C24.1545 3.41482 23.6787 3.91095 22.3752 5.32323L22.2393 5.47051L30.7099 13.9411L30.7238 13.9277C32.1048 12.5976 32.5925 12.1101 32.865 11.6319C33.5796 10.378 33.6021 8.83046 32.9235 7.55499C32.6647 7.06851 32.1909 6.56625 30.8489 5.19536C29.5052 3.82273 29.0156 3.34141 28.5443 3.07975ZM6.90139 22.0883L20.5423 7.30908L28.9089 15.6757L15.051 29.0232C12.4801 31.4994 11.4321 32.4777 10.1591 32.9749C8.88891 33.471 7.47494 33.4568 3.94208 33.3644L3.47543 33.3522C3.20957 33.3453 2.99899 33.3397 2.81818 33.3302C2.72449 33.3253 2.64746 33.3197 2.58361 33.3136C2.58426 33.1132 2.60462 32.8298 2.64015 32.3737L2.68515 31.7962C2.92491 28.7187 3.03803 27.4703 3.51978 26.3615C4.00059 25.2548 4.8279 24.3348 6.90139 22.0883Z" fill="#252B37"/>
<path d="M21.334 33.4163C20.6436 33.4163 20.084 33.976 20.084 34.6663C20.084 35.3567 20.6436 35.9163 21.334 35.9163H34.6673C35.3577 35.9163 35.9173 35.3567 35.9173 34.6663C35.9173 33.976 35.3577 33.4163 34.6673 33.4163H21.334Z" fill="#252B37"/>
</g>
</g>
</svg>
