<svg width="34" height="36" viewBox="0 0 34 36" fill="none" xmlns="http://www.w3.org/2000/svg">
<g id="elements">
<g id="Icon">
<path fill-rule="evenodd" clip-rule="evenodd" d="M16.938 0.0839869C16.2525 0.0839427 15.6418 0.0839033 15.1448 0.136929C14.6154 0.193401 14.0489 0.323162 13.5451 0.702611C12.676 1.35726 12.454 2.28627 12.4211 3.00956C12.3975 3.52998 12.4727 4.1152 12.5239 4.51345C12.5373 4.61769 12.549 4.70918 12.5569 4.78328L12.8265 7.31223C12.8312 7.35607 12.8359 7.40331 12.841 7.45345C12.8797 7.83854 12.9357 8.39488 13.1055 8.89866C13.3227 9.54303 13.7482 10.1956 14.5639 10.5975C14.9574 10.7913 15.3552 10.8594 15.7296 10.8894L15.75 10.891V12.7974C14.2935 13.3122 13.25 14.7012 13.25 16.334C13.25 16.4026 13.2518 16.4707 13.2555 16.5383L11.4635 17.8823C11.2796 17.646 11.061 17.419 10.7796 17.2314C10.0183 16.724 9.23543 16.6816 8.56387 16.8163C8.03785 16.9218 7.5232 17.1529 7.16511 17.3137C7.11847 17.3346 7.07449 17.3543 7.03348 17.3725L4.67585 18.4145C4.60621 18.4453 4.51951 18.4814 4.42083 18.5225C4.04502 18.6791 3.49532 18.908 3.05183 19.1907C2.43621 19.5831 1.73594 20.2437 1.6022 21.3312C1.52468 21.9615 1.69727 22.5211 1.91567 23.0121C2.12087 23.4734 2.43024 24.0074 2.77805 24.6077L2.84002 24.7147C3.18779 25.3152 3.49708 25.8492 3.79526 26.2569C4.11278 26.6911 4.51188 27.1185 5.09599 27.3658C6.10347 27.7922 7.02476 27.5198 7.67403 27.1844C8.1414 26.9429 8.61522 26.5829 8.93912 26.3368C9.02419 26.2721 9.09896 26.2153 9.16051 26.1706L11.2448 24.6566C11.2809 24.6304 11.3198 24.6024 11.3611 24.5728C11.6798 24.3442 12.1389 24.0148 12.4939 23.613C12.9477 23.0996 13.3038 22.4001 13.2434 21.4859C13.2142 21.0452 13.0728 20.6639 12.9097 20.3217C12.8656 20.2291 12.8165 20.1327 12.7632 20.0325L14.2686 18.9035C14.6742 19.3344 15.1805 19.6693 15.75 19.8706V33.4173H7C6.30964 33.4173 5.75 33.977 5.75 34.6673C5.75 35.3577 6.30964 35.9173 7 35.9173H27C27.6904 35.9173 28.25 35.3577 28.25 34.6673C28.25 33.977 27.6904 33.4173 27 33.4173H18.25V19.8706C18.8189 19.6695 19.3248 19.3351 19.7301 18.9048L21.236 20.0343C21.1831 20.1338 21.1342 20.2297 21.0904 20.3217C20.9272 20.6639 20.7858 21.0452 20.7567 21.4859C20.6963 22.4001 21.0524 23.0996 21.5061 23.613C21.8612 24.0148 22.3198 24.3438 22.6384 24.5724L22.7154 24.6277L22.7553 24.6566L24.8396 26.1706C24.901 26.2152 24.9755 26.2718 25.0604 26.3363C25.3843 26.5824 25.8587 26.9429 26.3261 27.1844C26.9753 27.5198 27.8966 27.7922 28.9041 27.3658C29.4882 27.1185 29.8873 26.6911 30.2048 26.2569C30.503 25.8492 30.8123 25.3152 31.1601 24.7147L31.222 24.6077C31.5698 24.0075 31.8792 23.4734 32.0844 23.0121C32.3028 22.5211 32.4754 21.9615 32.3979 21.3312C32.2642 20.2437 31.5639 19.5831 30.9483 19.1907C30.5048 18.908 29.9551 18.6791 29.5793 18.5226C29.4807 18.4815 29.3938 18.4453 29.3242 18.4145L26.9666 17.3725C26.9257 17.3544 26.8818 17.3347 26.8352 17.3138C26.4771 17.153 25.9622 16.9218 25.4362 16.8163C24.7647 16.6816 23.9818 16.724 23.2205 17.2314C22.9385 17.4194 22.7196 17.647 22.5354 17.8838L20.7444 16.5406C20.7481 16.4722 20.75 16.4033 20.75 16.334C20.75 14.7012 19.7065 13.3122 18.25 12.7974V10.891L18.2695 10.8894C18.644 10.8594 19.0418 10.7913 19.4353 10.5975C20.2509 10.1956 20.6765 9.54303 20.8937 8.89866C21.0635 8.39486 21.1194 7.83855 21.1582 7.45345C21.1632 7.40337 21.168 7.35602 21.1726 7.31223L21.4422 4.78328C21.4501 4.70918 21.4619 4.61775 21.4753 4.51351C21.5264 4.11526 21.6016 3.53001 21.578 3.00956C21.5452 2.28627 21.3232 1.35726 20.454 0.702611C19.9503 0.323162 19.3837 0.193401 18.8544 0.136929C18.3574 0.0839033 17.7467 0.0839427 17.0612 0.0839869H16.938ZM17.0038 8.41733C17.5199 8.41732 17.834 8.41634 18.0695 8.39744C18.1792 8.38864 18.2451 8.37764 18.2849 8.3685C18.3038 8.36415 18.3153 8.36053 18.3215 8.35839L18.3275 8.35614L18.3303 8.35491C18.4186 8.3114 18.4684 8.26706 18.5246 8.10022C18.5988 7.88018 18.6261 7.62103 18.6724 7.18277L18.9563 4.51829C18.9759 4.33475 18.9964 4.17273 19.0151 4.02506C19.0594 3.67586 19.0935 3.40677 19.0806 3.12293C19.0653 2.78642 18.987 2.72748 18.9502 2.69971L18.944 2.69618C18.9383 2.6933 18.9248 2.68707 18.8998 2.67905C18.8464 2.6619 18.7523 2.64022 18.5892 2.62282C18.2409 2.58567 17.7657 2.58399 16.9996 2.58399C16.2334 2.58399 15.7582 2.58567 15.41 2.62282C15.2469 2.64022 15.1528 2.6619 15.0994 2.67905C15.0744 2.68707 15.0609 2.6933 15.0552 2.69618L15.0492 2.69952C15.0124 2.72729 14.9338 2.78642 14.9186 3.12293C14.9057 3.40677 14.9398 3.67577 14.984 4.02497C15.0027 4.17266 15.0233 4.33472 15.0429 4.51829L15.3268 7.18275C15.373 7.62103 15.4004 7.88018 15.4746 8.10022C15.5308 8.26706 15.5805 8.3114 15.6688 8.35491C15.6688 8.35491 15.6717 8.35633 15.6776 8.35839C15.6838 8.36053 15.6954 8.36415 15.7143 8.3685C15.754 8.37764 15.82 8.38864 15.9296 8.39744C16.1652 8.41634 16.4794 8.41732 16.9957 8.41733L17 8.41732L17.0038 8.41733ZM15.75 16.334C15.75 15.6436 16.3096 15.084 17 15.084C17.6904 15.084 18.25 15.6436 18.25 16.334C18.25 17.0243 17.6904 17.584 17 17.584C16.3096 17.584 15.75 17.0243 15.75 16.334ZM24.9447 19.2675C24.7652 19.2315 24.6951 19.253 24.6069 19.3117C24.6069 19.3117 24.5947 19.3197 24.569 19.3471C24.5402 19.378 24.4967 19.4307 24.4331 19.5226C24.2964 19.7202 24.1355 19.9962 23.8726 20.4499C23.6098 20.9037 23.4505 21.1806 23.3471 21.3974C23.2991 21.4981 23.2751 21.5619 23.2628 21.602C23.2569 21.621 23.2541 21.6333 23.2528 21.6402C23.2515 21.6468 23.2513 21.6508 23.2513 21.6508C23.2445 21.7529 23.2594 21.8217 23.3794 21.9575C23.5363 22.135 23.7515 22.291 24.1123 22.5525L26.3088 24.1479C26.4592 24.2571 26.5906 24.3566 26.7106 24.4475C26.9955 24.6632 27.2163 24.8304 27.4736 24.9633C27.7801 25.1217 27.8785 25.0852 27.9295 25.0635C27.9295 25.0635 27.9306 25.0631 27.9325 25.062C27.934 25.0612 27.936 25.0601 27.9384 25.0585C27.9447 25.0543 27.9578 25.0451 27.978 25.0268C28.0212 24.9877 28.0886 24.9155 28.1869 24.7811C28.3966 24.4943 28.6394 24.0785 29.0278 23.4082C29.4161 22.7377 29.6559 22.3203 29.8002 21.996C29.8678 21.844 29.8968 21.75 29.909 21.6937C29.9147 21.6673 29.9162 21.6519 29.9166 21.6449L29.9167 21.6382L29.9166 21.6363C29.9104 21.5861 29.8959 21.4846 29.6045 21.2989C29.3604 21.1432 29.1048 21.0363 28.7748 20.8982C28.6359 20.84 28.4837 20.7763 28.3136 20.7011L25.8288 19.6028C25.4215 19.4222 25.1779 19.3143 24.9447 19.2675ZM8.17128 19.6028C8.57858 19.4222 8.82216 19.3143 9.05537 19.2675C9.23485 19.2315 9.30506 19.253 9.39318 19.3118C9.39318 19.3118 9.4054 19.3197 9.43106 19.3471C9.45987 19.378 9.5034 19.4307 9.56695 19.5226C9.70368 19.7202 9.86463 19.9962 10.1275 20.4499C10.3903 20.9037 10.5496 21.1806 10.653 21.3974C10.701 21.4981 10.725 21.5619 10.7373 21.602C10.7432 21.621 10.7459 21.6333 10.7473 21.6402C10.7485 21.6468 10.7488 21.6508 10.7488 21.6508C10.7556 21.7529 10.7407 21.8217 10.6207 21.9575C10.4638 22.135 10.2486 22.291 9.88776 22.5525L7.69125 24.1479C7.54082 24.2572 7.40937 24.3567 7.28933 24.4476C7.0044 24.6633 6.78376 24.8304 6.52649 24.9633C6.21994 25.1217 6.12164 25.0852 6.07056 25.0635C6.07056 25.0635 6.06749 25.0623 6.06164 25.0585C6.05536 25.0543 6.04233 25.0451 6.02207 25.0268C5.97887 24.9877 5.91147 24.9155 5.81318 24.7811C5.60344 24.4943 5.36066 24.0785 4.97233 23.4082C4.58398 22.7377 4.34414 22.3203 4.19987 21.996C4.13226 21.844 4.10331 21.75 4.09109 21.6937C4.08537 21.6673 4.08392 21.6519 4.08352 21.6449L4.08338 21.6382L4.0835 21.6363C4.08968 21.5861 4.10418 21.4846 4.39556 21.2989C4.63971 21.1432 4.89527 21.0363 5.22524 20.8982C5.36421 20.84 5.51645 20.7763 5.68652 20.7011L8.17128 19.6028Z" fill=""/>
<path d="M9.2577 4.86192C9.82534 4.46902 9.96701 3.69035 9.57411 3.1227C9.18122 2.55505 8.40254 2.41339 7.83489 2.80628C4.06783 5.41364 1.43754 9.58357 0.846764 14.3945C0.804952 14.735 0.773375 15.0786 0.752339 15.425C0.710491 16.1141 1.23518 16.7066 1.92427 16.7485C2.61335 16.7903 3.20589 16.2656 3.24774 15.5765C3.26566 15.2814 3.29255 14.9889 3.32813 14.6992C3.8301 10.6114 6.06436 7.07217 9.2577 4.86192Z" fill=""/>
<path d="M26.1652 2.80628C25.5975 2.41339 24.8189 2.55505 24.426 3.1227C24.0331 3.69035 24.1747 4.46902 24.7424 4.86192C27.9357 7.07217 30.17 10.6114 30.672 14.6992C30.7075 14.9889 30.7344 15.2814 30.7523 15.5765C30.7942 16.2656 31.3867 16.7903 32.0758 16.7485C32.7649 16.7066 33.2896 16.1141 33.2477 15.425C33.2267 15.0786 33.1951 14.735 33.1533 14.3945C32.5625 9.58357 29.9323 5.41364 26.1652 2.80628Z" fill=""/>
</g>
</g>
</svg>
