<svg width="36" height="36" viewBox="0 0 36 36" fill="none" xmlns="http://www.w3.org/2000/svg">
<g id="elements">
<path id="Icon" fill-rule="evenodd" clip-rule="evenodd" d="M13.8737 1.32723C15.2668 0.545457 16.5572 0.0839844 18.0007 0.0839844C19.4441 0.0839844 20.7345 0.545457 22.1277 1.32723C23.4775 2.0847 25.0242 3.20306 26.9692 4.60936L29.4843 6.42787C31.0452 7.55643 32.2919 8.45781 33.2322 9.29211C34.2031 10.1535 34.9294 11.0123 35.3902 12.0925C35.8519 13.1751 35.9636 14.2847 35.9016 15.5641C35.8419 16.7987 35.6129 18.2883 35.3275 20.1458L34.802 23.5652C34.3964 26.2048 34.0734 28.3067 33.5989 29.9442C33.1083 31.6375 32.4171 32.9818 31.1817 34.0093C29.9514 35.0326 28.4858 35.4884 26.6956 35.7058C24.954 35.9174 22.7571 35.9173 19.9822 35.9173H16.0191C13.2442 35.9173 11.0473 35.9174 9.30575 35.7058C7.51549 35.4884 6.04994 35.0326 4.81966 34.0093C3.58424 32.9818 2.89306 31.6375 2.4024 29.9443C1.9279 28.3067 1.60491 26.2048 1.19929 23.5651L0.673862 20.146C0.388383 18.2884 0.159449 16.7988 0.0996724 15.5641C0.0377316 14.2847 0.149407 13.1751 0.611147 12.0925C1.07188 11.0123 1.79823 10.1535 2.76914 9.29211C3.70946 8.45781 4.95615 7.55643 6.51705 6.42786L9.0321 4.60939C10.9771 3.20306 12.5238 2.08471 13.8737 1.32723ZM19.6673 23.0007C19.6673 22.0802 18.9211 21.334 18.0007 21.334C17.0802 21.334 16.334 22.0802 16.334 23.0007V28.0007C16.334 28.9211 17.0802 29.6673 18.0007 29.6673C18.9211 29.6673 19.6673 28.9211 19.6673 28.0007V23.0007Z" fill="#15B79E"/>
</g>
</svg>
