<svg width="36" height="36" viewBox="0 0 36 36" fill="none" xmlns="http://www.w3.org/2000/svg">
<g id="elements">
<g id="Icon">
<path d="M19.2507 23.0007C19.2507 22.3103 18.691 21.7507 18.0007 21.7507C17.3103 21.7507 16.7507 22.3103 16.7507 23.0007V28.0007C16.7507 28.691 17.3103 29.2507 18.0007 29.2507C18.691 29.2507 19.2507 28.691 19.2507 28.0007V23.0007Z" fill="#252B37"/>
<path fill-rule="evenodd" clip-rule="evenodd" d="M18.0007 0.0839844C16.5572 0.0839844 15.2668 0.545457 13.8737 1.32723C12.5238 2.08471 10.9771 3.20306 9.0321 4.60938L6.51705 6.42786C4.95615 7.55643 3.70946 8.45781 2.76914 9.29211C1.79823 10.1535 1.07188 11.0123 0.611147 12.0925C0.149407 13.1751 0.0377316 14.2847 0.0996724 15.5641C0.159449 16.7988 0.388383 18.2884 0.673862 20.146L1.19929 23.5651C1.60491 26.2048 1.9279 28.3067 2.4024 29.9443C2.89306 31.6375 3.58424 32.9818 4.81966 34.0093C6.04994 35.0326 7.51549 35.4884 9.30575 35.7058C11.0473 35.9174 13.2442 35.9173 16.0191 35.9173H19.9822C22.7571 35.9173 24.954 35.9174 26.6956 35.7058C28.4858 35.4884 29.9514 35.0326 31.1817 34.0093C32.4171 32.9818 33.1083 31.6375 33.5989 29.9442C34.0734 28.3067 34.3964 26.2048 34.802 23.5652L35.3275 20.1458C35.6129 18.2883 35.8419 16.7988 35.9016 15.5641C35.9636 14.2847 35.8519 13.1751 35.3902 12.0925C34.9294 11.0123 34.2031 10.1535 33.2322 9.29211C32.2919 8.45781 31.0452 7.55643 29.4843 6.42787L26.9692 4.6094C25.0242 3.20308 23.4775 2.08471 22.1277 1.32723C20.7345 0.545457 19.4441 0.0839844 18.0007 0.0839844ZM10.4347 6.68028C12.4559 5.21885 13.8873 4.18632 15.0971 3.50741C16.278 2.84473 17.139 2.58398 18.0007 2.58398C18.8623 2.58398 19.7233 2.84473 20.9042 3.50741C22.114 4.18632 23.5454 5.21885 25.5666 6.68028L27.9664 8.41538C29.5925 9.59111 30.737 10.4205 31.573 11.1622C32.389 11.8861 32.8275 12.4565 33.0906 13.0733C33.3527 13.6879 33.4559 14.384 33.4046 15.4432C33.3518 16.5324 33.1443 17.8933 32.8462 19.8332L32.3445 23.0981C31.9223 25.845 31.6216 27.7854 31.1977 29.2484C30.7847 30.6737 30.2941 31.4958 29.583 32.0873C28.8668 32.683 27.9362 33.0368 26.3941 33.2241C24.8208 33.4152 22.7757 33.4173 19.8987 33.4173H16.1026C13.2256 33.4173 11.1805 33.4152 9.60719 33.2241C8.06511 33.0368 7.13455 32.683 6.41832 32.0873C5.70722 31.4958 5.21663 30.6737 4.80362 29.2484C4.37968 27.7854 4.07899 25.845 3.65687 23.0981L3.15514 19.8332C2.85703 17.8933 2.64948 16.5324 2.59675 15.4432C2.54547 14.384 2.64862 13.6879 2.91072 13.0733C3.17382 12.4565 3.61235 11.8861 4.42834 11.1622C5.26427 10.4205 6.40886 9.59111 8.03496 8.41538L10.4347 6.68028Z" fill="#252B37"/>
</g>
</g>
</svg>
