<svg width="25" height="25" viewBox="0 0 25 25" fill="none" xmlns="http://www.w3.org/2000/svg">
<g id="cellular-network">
<g id="Icon">
<path d="M4.95188 5.22598C5.19909 4.89363 5.13007 4.4238 4.79772 4.17659C4.46537 3.92937 3.99553 3.9984 3.74832 4.33075C2.59512 5.88112 1.91602 7.75596 1.91602 9.77837C1.91602 11.8008 2.59512 13.6756 3.74832 15.226C3.99553 15.5583 4.46537 15.6274 4.79772 15.3801C5.13007 15.1329 5.19909 14.6631 4.95188 14.3307C3.97763 13.021 3.41602 11.4563 3.41602 9.77837C3.41602 8.10045 3.97763 6.53578 4.95188 5.22598Z" fill="#535862"/>
<path d="M21.5837 4.33075C21.3365 3.9984 20.8667 3.92937 20.5343 4.17659C20.202 4.4238 20.1329 4.89363 20.3802 5.22598C21.3544 6.53578 21.916 8.10045 21.916 9.77837C21.916 11.4563 21.3544 13.021 20.3802 14.3307C20.1329 14.6631 20.202 15.1329 20.5343 15.3801C20.8667 15.6274 21.3365 15.5583 21.5837 15.226C22.7369 13.6756 23.416 11.8008 23.416 9.77837C23.416 7.75596 22.7369 5.88112 21.5837 4.33075Z" fill="#535862"/>
<path d="M17.1715 6.18086C17.5015 5.9305 17.972 5.99506 18.2223 6.32505C18.9713 7.31222 19.416 8.49724 19.416 9.77836C19.416 11.0595 18.9713 12.2445 18.2223 13.2317C17.972 13.5617 17.5015 13.6262 17.1715 13.3759C16.8415 13.1255 16.777 12.655 17.0273 12.3251C17.5979 11.573 17.916 10.7012 17.916 9.77836C17.916 8.8555 17.5979 7.98372 17.0273 7.23167C16.777 6.90167 16.8415 6.43121 17.1715 6.18086Z" fill="#535862"/>
<path d="M8.1605 6.18086C8.49049 6.43121 8.55505 6.90167 8.3047 7.23167C7.73414 7.98372 7.41602 8.8555 7.41602 9.77836C7.41602 10.7012 7.73414 11.573 8.3047 12.3251C8.55505 12.655 8.49049 13.1255 8.1605 13.3759C7.8305 13.6262 7.36004 13.5617 7.10968 13.2317C6.36075 12.2445 5.91602 11.0595 5.91602 9.77836C5.91602 8.49724 6.36075 7.31222 7.10968 6.32505C7.36004 5.99506 7.8305 5.9305 8.1605 6.18086Z" fill="#535862"/>
<path fill-rule="evenodd" clip-rule="evenodd" d="M13.416 12.4248C14.5703 12.0983 15.416 11.0371 15.416 9.77832C15.416 8.25954 14.1848 7.02832 12.666 7.02832C11.1472 7.02832 9.91602 8.25954 9.91602 9.77832C9.91602 11.0371 10.7618 12.0983 11.916 12.4248V20.7783C11.916 21.1925 12.2518 21.5283 12.666 21.5283C13.0802 21.5283 13.416 21.1925 13.416 20.7783V12.4248ZM11.416 9.77832C11.416 9.08796 11.9757 8.52832 12.666 8.52832C13.3564 8.52832 13.916 9.08796 13.916 9.77832C13.916 10.4687 13.3564 11.0283 12.666 11.0283C11.9757 11.0283 11.416 10.4687 11.416 9.77832Z" fill="#535862"/>
</g>
</g>
</svg>
