<svg width="" height="" viewBox="0 0 36 34" fill="none" xmlns="http://www.w3.org/2000/svg">
<g id="elements">
<g id="Icon">
<path d="M9.66537 15.75C8.97501 15.75 8.41537 16.3096 8.41537 17C8.41537 17.6904 8.97501 18.25 9.66537 18.25H26.332C27.0224 18.25 27.582 17.6904 27.582 17C27.582 16.3096 27.0224 15.75 26.332 15.75H9.66537Z" fill=""/>
<path fill-rule="evenodd" clip-rule="evenodd" d="M24.7305 0.75H11.2669C9.37308 0.749985 7.86097 0.749973 6.64808 0.867602C5.4021 0.988441 4.34074 1.24259 3.39681 1.8357C2.49578 2.40186 1.73389 3.16375 1.16774 4.06477C0.574623 5.00871 0.320473 6.07007 0.199634 7.31605C0.0820051 8.52893 0.0820168 10.041 0.0820316 11.9349V12.0651C0.0820166 13.959 0.0820047 15.4711 0.199633 16.684C0.320472 17.9299 0.574623 18.9913 1.16774 19.9352C1.73389 20.8363 2.49578 21.5981 3.3968 22.1643C4.34074 22.7574 5.4021 23.0116 6.64808 23.1324C7.86098 23.25 9.37309 23.25 11.267 23.25L24.7304 23.25C26.6243 23.25 28.1364 23.25 29.3493 23.1324C30.5953 23.0116 31.6567 22.7574 32.6006 22.1643C33.5016 21.5981 34.2635 20.8363 34.8297 19.9352C35.4228 18.9913 35.6769 17.9299 35.7978 16.684C35.9154 15.4711 35.9154 13.959 35.9154 12.0651V11.9349C35.9154 10.041 35.9154 8.52893 35.7978 7.31605C35.6769 6.07007 35.4228 5.00871 34.8297 4.06477C34.2635 3.16375 33.5016 2.40186 32.6006 1.83571C31.6567 1.24259 30.5953 0.988442 29.3493 0.867603C28.1364 0.749975 26.6243 0.749986 24.7305 0.75ZM4.72689 3.95252C5.20592 3.65152 5.83058 3.45862 6.88941 3.35593C7.96747 3.25137 9.35824 3.25 11.332 3.25L24.6654 3.25C26.6392 3.25 28.0299 3.25137 29.108 3.35593C30.1668 3.45862 30.7915 3.65152 31.2705 3.95252C31.8535 4.31885 32.3465 4.81184 32.7129 5.39485C33.0139 5.87389 33.2068 6.49855 33.3094 7.55738C33.414 8.63544 33.4154 10.0262 33.4154 12C33.4154 13.9738 33.414 15.3646 33.3094 16.4426C33.2067 17.5015 33.0138 18.1261 32.7129 18.6052C32.3465 19.1882 31.8535 19.6812 31.2705 20.0475C30.7915 20.3485 30.1668 20.5414 29.108 20.6441C28.0299 20.7486 26.6392 20.75 24.6654 20.75L11.332 20.75C9.35824 20.75 7.96747 20.7486 6.88941 20.6441C5.83058 20.5414 5.20592 20.3485 4.72688 20.0475C4.14387 19.6812 3.65088 19.1882 3.28455 18.6052C2.98355 18.1261 2.79065 17.5015 2.68796 16.4426C2.5834 15.3646 2.58203 13.9738 2.58203 12C2.58203 10.0262 2.58341 8.63544 2.68796 7.55738C2.79065 6.49855 2.98355 5.87389 3.28455 5.39485C3.65088 4.81184 4.14387 4.31885 4.72689 3.95252Z" fill=""/>
<path d="M10.4819 26.5094C10.2109 25.8744 9.47656 25.5793 8.84159 25.8502C8.20908 26.1201 7.91379 26.8498 8.17929 27.4831L8.18205 27.4901C8.1862 27.5007 8.19412 27.5215 8.20465 27.5515C8.2258 27.6118 8.25681 27.7074 8.28861 27.8304C8.3532 28.0802 8.41547 28.4214 8.41547 28.7968C8.41547 29.518 8.19772 30.332 7.27983 30.9774C6.7151 31.3745 6.57919 32.1542 6.97627 32.7189C7.37334 33.2836 8.15304 33.4195 8.71777 33.0224C10.4665 31.7928 10.9155 30.1068 10.9155 28.7968C10.9155 28.1566 10.8111 27.5993 10.709 27.2046C10.6575 27.0053 10.6051 26.8421 10.5638 26.7242C10.5431 26.6651 10.525 26.6169 10.5109 26.5809L10.4929 26.5358L10.4864 26.5202L10.4839 26.5142L10.4828 26.5116L10.4819 26.5094Z" fill=""/>
<path d="M27.1558 25.8502C26.5208 25.5793 25.7865 25.8744 25.5155 26.5094L25.5146 26.5116L25.5135 26.5142L25.511 26.5202L25.5045 26.5358L25.4865 26.5809C25.4724 26.6169 25.4543 26.6651 25.4336 26.7242C25.3923 26.8421 25.3399 27.0053 25.2884 27.2046C25.1863 27.5993 25.0819 28.1566 25.0819 28.7968C25.0819 30.1068 25.5308 31.7928 27.2796 33.0224C27.8444 33.4195 28.6241 33.2836 29.0211 32.7189C29.4182 32.1542 29.2823 31.3745 28.7176 30.9774C27.7997 30.332 27.5819 29.518 27.5819 28.7968C27.5819 28.4214 27.6442 28.0802 27.7088 27.8304C27.7406 27.7074 27.7716 27.6118 27.7927 27.5515L27.8044 27.519L27.8153 27.4901L27.8181 27.4831C28.0836 26.8498 27.7883 26.1201 27.1558 25.8502Z" fill=""/>
<path d="M19.2487 27C19.2487 26.3096 18.6891 25.75 17.9987 25.75C17.3083 25.75 16.7487 26.3096 16.7487 27V32C16.7487 32.6904 17.3083 33.25 17.9987 33.25C18.6891 33.25 19.2487 32.6904 19.2487 32V27Z" fill=""/>
</g>
</g>
</svg>
