<svg width="26" height="36" viewBox="0 0 26 36" fill="none" xmlns="http://www.w3.org/2000/svg">
<path d="M8.00065 23.0007C8.00065 22.0802 8.74684 21.334 9.66732 21.334H9.67927C10.5997 21.334 11.3459 22.0802 11.3459 23.0007C11.3459 23.9211 10.5997 24.6673 9.67927 24.6673H9.66732C8.74684 24.6673 8.00065 23.9211 8.00065 23.0007Z" fill="#111322"/>
<path d="M14.6554 23.0007C14.6554 22.0802 15.4016 21.334 16.322 21.334H16.334C17.2545 21.334 18.0007 22.0802 18.0007 23.0007C18.0007 23.9211 17.2545 24.6673 16.334 24.6673H16.322C15.4016 24.6673 14.6554 23.9211 14.6554 23.0007Z" fill="#111322"/>
<path fill-rule="evenodd" clip-rule="evenodd" d="M13.0007 0.0839844C8.16816 0.0839844 4.25065 4.00149 4.25065 8.83398V13.4991C1.68887 15.8594 0.0839844 19.2426 0.0839844 23.0007C0.0839844 30.1343 5.86697 35.9173 13.0007 35.9173C20.1343 35.9173 25.9173 30.1343 25.9173 23.0007C25.9173 19.2426 24.3124 15.8594 21.7507 13.4991V8.83398C21.7507 4.00149 17.8331 0.0839844 13.0007 0.0839844ZM19.2507 11.6941V8.83398C19.2507 5.3822 16.4524 2.58398 13.0007 2.58398C9.54887 2.58398 6.75065 5.3822 6.75065 8.83398V11.6941C8.6027 10.6681 10.7335 10.084 13.0007 10.084C15.2678 10.084 17.3986 10.6681 19.2507 11.6941ZM13.0007 12.584C7.24769 12.584 2.58398 17.2477 2.58398 23.0007C2.58398 28.7536 7.24769 33.4173 13.0007 33.4173C18.7536 33.4173 23.4173 28.7536 23.4173 23.0007C23.4173 17.2477 18.7536 12.584 13.0007 12.584Z" fill="#111322"/>
</svg>
