<svg width="193" height="44" viewBox="0 0 193 44" fill="none" xmlns="http://www.w3.org/2000/svg">
<g id="AVANTE new logo vector 3">
<path id="Vector" d="M2.42797 40.5218H2.26172V3.47852H19.9053L17.5092 8.58317L11.1548 22.0001L2.42797 40.5218ZM22.1114 3.47852L30.8619 22.0001L39.6125 40.5218H39.7787V3.47852H22.1114ZM4.30158 40.5218H32.593L23.8425 22.0001L18.4354 10.574L13.0284 22.0001L4.30158 40.5218Z" fill="url(#paint0_linear_364_7037)"/>
<path id="Vector_2" d="M67.8958 14.9855L64.5998 8.01772L61.3038 14.9855L55.8809 26.4925H54.7383L60.1612 14.9855L64.0351 6.80605L65.5973 3.47852H66.7399L72.176 14.9855L77.6121 26.4925H73.3319L67.8958 14.9855ZM86.5553 14.9855L89.8513 21.9532L93.1472 14.9855L98.5833 3.47852H99.726L94.2899 14.9855L90.4292 23.1649L88.8538 26.4925H87.7111L82.275 14.9855L76.8521 3.47852H81.1324L86.5553 14.9855ZM111.643 14.9855L108.347 8.01772L105.051 14.9855L99.6283 26.4925H98.4857L103.909 14.9855L107.782 6.80605L109.345 3.47852H110.487L115.923 14.9855L121.36 26.4925H117.079L111.643 14.9855ZM125.347 3.47852H126.387L144.199 21.0673V3.47852H145.241V26.4925H144.199L126.387 8.90368V26.4925H125.347V3.47852ZM149.408 3.47852H171.43V4.49215H162.365V26.4925H158.475V4.49215H149.411V3.47852H149.408ZM179.085 3.47852H190.738V4.49215H179.085V14.4722H186.849V15.4988H179.085V25.4632H190.738V26.4898H175.195V3.47852H179.085Z" fill="url(#paint1_linear_364_7037)"/>
<path id="Vector_3" d="M59.9999 33.88H61.256L58.5063 40.4568H57.4851L54.7354 33.88H56.0205L58.0128 38.8986L59.9973 33.88H59.9999ZM68.5103 34.917H64.7684V36.5951H68.0855V37.6296H64.7684V39.3729H68.5578V40.4073H63.6178V33.8773H68.5103V34.9118V34.917ZM75.7857 33.88H76.9389V40.4099H75.9678L72.3288 35.7639V40.4099H71.1756V33.88H72.2496L75.7857 38.3957V33.88ZM82.6627 40.4099H81.491V34.9431H79.3931V33.88H84.7579V34.9431H82.66V40.4099H82.6627ZM88.4365 33.88V40.4099H87.2833V33.88H88.4365ZM91.4396 33.88H92.5928V39.3755H96.0682V40.4099H91.4396V33.88ZM104.845 40.4099H103.618L102.948 38.8335H99.8207L99.1398 40.4099H97.9497L100.86 33.833H101.937L104.848 40.4099H104.845ZM101.378 35.2063L100.243 37.8172H102.52L101.378 35.2063ZM109.152 40.4099H107.98V34.9431H105.882V33.88H111.247V34.9431H109.149V40.4099H109.152ZM114.926 33.88V40.4099H113.772V33.88H114.926ZM124.296 38.4426C124.127 38.8543 123.887 39.2113 123.579 39.5214C123.27 39.8289 122.906 40.0738 122.483 40.2536C122.061 40.4334 121.597 40.5246 121.085 40.5246C120.573 40.5246 120.108 40.436 119.686 40.2588C119.264 40.0816 118.902 39.8419 118.599 39.537C118.295 39.2321 118.061 38.8752 117.889 38.4635C117.72 38.0517 117.633 37.6166 117.633 37.158C117.633 36.6994 117.718 36.2616 117.889 35.8525C118.058 35.4408 118.298 35.0838 118.607 34.7737C118.916 34.4662 119.28 34.2213 119.702 34.0415C120.124 33.8617 120.591 33.7705 121.101 33.7705C121.61 33.7705 122.077 33.8591 122.499 34.0363C122.921 34.2135 123.283 34.4558 123.586 34.7581C123.89 35.063 124.125 35.4199 124.296 35.8317C124.465 36.2408 124.552 36.6785 124.552 37.1371C124.552 37.5957 124.468 38.0335 124.296 38.4426ZM123.167 36.2538C123.056 35.9698 122.903 35.7248 122.705 35.5111C122.507 35.3001 122.27 35.1307 121.993 35.0082C121.715 34.8832 121.412 34.8206 121.085 34.8206C120.758 34.8206 120.457 34.8806 120.182 35.003C119.908 35.1255 119.673 35.2897 119.478 35.4981C119.282 35.7066 119.129 35.9515 119.019 36.2355C118.908 36.5196 118.852 36.8192 118.852 37.1345C118.852 37.4498 118.908 37.7521 119.019 38.0361C119.129 38.3201 119.282 38.5651 119.48 38.7787C119.678 38.9898 119.916 39.1592 120.193 39.2817C120.47 39.4067 120.773 39.4693 121.101 39.4693C121.428 39.4693 121.729 39.4093 122.003 39.2869C122.278 39.1644 122.512 39.0002 122.708 38.7918C122.903 38.5833 123.056 38.3384 123.167 38.0544C123.278 37.7703 123.333 37.4707 123.333 37.1554C123.333 36.8401 123.278 36.5378 123.167 36.2564V36.2538ZM131.799 33.88H132.952V40.4099H131.981L128.342 35.7639V40.4099H127.189V33.88H128.263L131.799 38.3957V33.88ZM140.979 35.9229C141.024 36.0167 141.103 36.1026 141.222 36.1834C141.338 36.2642 141.499 36.3398 141.705 36.4075C141.911 36.4753 142.169 36.5482 142.486 36.6212C142.834 36.7072 143.141 36.8036 143.41 36.9104C143.679 37.0173 143.901 37.1449 144.077 37.2987C144.254 37.4498 144.389 37.6296 144.481 37.8303C144.573 38.0335 144.618 38.2706 144.618 38.5442C144.618 38.8543 144.56 39.1331 144.444 39.3755C144.328 39.6178 144.167 39.8237 143.961 39.9904C143.755 40.1572 143.507 40.2849 143.217 40.3735C142.927 40.4595 142.61 40.5038 142.264 40.5038C141.755 40.5038 141.267 40.4178 140.8 40.2484C140.333 40.0764 139.903 39.8158 139.507 39.4588L140.206 38.638C140.528 38.9116 140.853 39.1227 141.18 39.2686C141.507 39.4146 141.879 39.4875 142.293 39.4875C142.652 39.4875 142.937 39.4119 143.148 39.2634C143.36 39.1149 143.465 38.9116 143.465 38.6563C143.465 38.539 143.444 38.4322 143.404 38.3384C143.365 38.2446 143.288 38.1586 143.178 38.083C143.067 38.0048 142.916 37.9319 142.724 37.8641C142.531 37.7964 142.28 37.7234 141.972 37.6505C141.618 37.5697 141.304 37.4785 141.029 37.3795C140.755 37.2804 140.525 37.1554 140.338 37.0068C140.151 36.8583 140.011 36.6785 139.911 36.4648C139.813 36.2538 139.763 35.9958 139.763 35.6909C139.763 35.4043 139.818 35.1463 139.932 34.9118C140.045 34.6799 140.198 34.4793 140.396 34.3099C140.594 34.1431 140.829 34.0128 141.106 33.9216C141.383 33.8304 141.684 33.7861 142.011 33.7861C142.497 33.7861 142.932 33.8565 143.32 33.9972C143.708 34.1379 144.072 34.3412 144.41 34.607L143.787 35.4747C143.484 35.2584 143.185 35.0916 142.89 34.977C142.594 34.8623 142.293 34.805 141.993 34.805C141.652 34.805 141.388 34.8806 141.198 35.0343C141.008 35.188 140.916 35.3704 140.916 35.5893C140.916 35.7196 140.937 35.8317 140.982 35.9255L140.979 35.9229ZM150.049 40.4099H148.878V37.8355L146.252 33.88H147.621L149.474 36.7723L151.345 33.88H152.677L150.052 37.8068V40.4099H150.049ZM155.633 35.9229C155.678 36.0167 155.757 36.1026 155.876 36.1834C155.992 36.2642 156.153 36.3398 156.359 36.4075C156.565 36.4753 156.823 36.5482 157.14 36.6212C157.488 36.7072 157.794 36.8036 158.063 36.9104C158.333 37.0173 158.554 37.1449 158.731 37.2987C158.908 37.4498 159.042 37.6296 159.135 37.8303C159.227 38.0335 159.272 38.2706 159.272 38.5442C159.272 38.8543 159.214 39.1331 159.098 39.3755C158.982 39.6178 158.821 39.8237 158.615 39.9904C158.409 40.1572 158.161 40.2849 157.871 40.3735C157.581 40.4595 157.264 40.5038 156.918 40.5038C156.409 40.5038 155.921 40.4178 155.454 40.2484C154.987 40.0764 154.556 39.8158 154.161 39.4588L154.86 38.638C155.182 38.9116 155.506 39.1227 155.834 39.2686C156.161 39.4146 156.533 39.4875 156.947 39.4875C157.306 39.4875 157.591 39.4119 157.802 39.2634C158.013 39.1149 158.119 38.9116 158.119 38.6563C158.119 38.539 158.098 38.4322 158.058 38.3384C158.019 38.2446 157.942 38.1586 157.831 38.083C157.72 38.0048 157.57 37.9319 157.377 37.8641C157.185 37.7964 156.934 37.7234 156.625 37.6505C156.272 37.5697 155.958 37.4785 155.683 37.3795C155.409 37.2804 155.179 37.1554 154.992 37.0068C154.804 36.8583 154.665 36.6785 154.564 36.4648C154.467 36.2538 154.417 35.9958 154.417 35.6909C154.417 35.4043 154.472 35.1463 154.585 34.9118C154.699 34.6799 154.852 34.4793 155.05 34.3099C155.248 34.1431 155.483 34.0128 155.76 33.9216C156.037 33.8304 156.338 33.7861 156.665 33.7861C157.15 33.7861 157.586 33.8565 157.974 33.9972C158.362 34.1379 158.726 34.3412 159.064 34.607L158.441 35.4747C158.137 35.2584 157.839 35.0916 157.544 34.977C157.248 34.8623 156.947 34.805 156.646 34.805C156.306 34.805 156.042 34.8806 155.852 35.0343C155.662 35.188 155.57 35.3704 155.57 35.5893C155.57 35.7196 155.591 35.8317 155.636 35.9255L155.633 35.9229ZM164.523 40.4099H163.352V34.9431H161.254V33.88H166.619V34.9431H164.521V40.4099H164.523ZM173.971 34.917H170.229V36.5951H173.546V37.6296H170.229V39.3729H174.018V40.4073H169.078V33.8773H173.971V34.9118V34.917ZM179.892 38.8048H179.855L177.786 35.7457V40.4099H176.633V33.88H177.871L179.884 36.9678L181.898 33.88H183.135V40.4099H181.982V35.7274L179.895 38.8048H179.892ZM187.102 35.9229C187.147 36.0167 187.226 36.1026 187.344 36.1834C187.461 36.2642 187.622 36.3398 187.827 36.4075C188.033 36.4753 188.292 36.5482 188.609 36.6212C188.957 36.7072 189.263 36.8036 189.532 36.9104C189.801 37.0173 190.023 37.1449 190.2 37.2987C190.377 37.4498 190.511 37.6296 190.604 37.8303C190.696 38.0335 190.741 38.2706 190.741 38.5442C190.741 38.8543 190.683 39.1331 190.567 39.3755C190.45 39.6178 190.29 39.8237 190.084 39.9904C189.878 40.1572 189.63 40.2849 189.339 40.3735C189.049 40.4595 188.733 40.5038 188.387 40.5038C187.878 40.5038 187.389 40.4178 186.922 40.2484C186.455 40.0764 186.025 39.8158 185.629 39.4588L186.329 38.638C186.65 38.9116 186.975 39.1227 187.302 39.2686C187.63 39.4146 188.002 39.4875 188.416 39.4875C188.775 39.4875 189.06 39.4119 189.271 39.2634C189.482 39.1149 189.588 38.9116 189.588 38.6563C189.588 38.539 189.566 38.4322 189.527 38.3384C189.487 38.2446 189.411 38.1586 189.3 38.083C189.189 38.0048 189.039 37.9319 188.846 37.8641C188.653 37.7964 188.403 37.7234 188.094 37.6505C187.74 37.5697 187.426 37.4785 187.152 37.3795C186.877 37.2804 186.648 37.1554 186.46 37.0068C186.273 36.8583 186.133 36.6785 186.033 36.4648C185.935 36.2538 185.885 35.9958 185.885 35.6909C185.885 35.4043 185.941 35.1463 186.054 34.9118C186.168 34.6799 186.321 34.4793 186.519 34.3099C186.716 34.1431 186.951 34.0128 187.228 33.9216C187.505 33.8304 187.806 33.7861 188.134 33.7861C188.619 33.7861 189.055 33.8565 189.442 33.9972C189.83 34.1379 190.195 34.3412 190.532 34.607L189.909 35.4747C189.606 35.2584 189.308 35.0916 189.012 34.977C188.717 34.8623 188.416 34.805 188.115 34.805C187.775 34.805 187.511 34.8806 187.321 35.0343C187.131 35.188 187.038 35.3704 187.038 35.5893C187.038 35.7196 187.06 35.8317 187.104 35.9255L187.102 35.9229Z" fill="url(#paint2_linear_364_7037)"/>
</g>
<defs>
<linearGradient id="paint0_linear_364_7037" x1="56.8365" y1="22.0001" x2="-15.1259" y2="22.0001" gradientUnits="userSpaceOnUse">
<stop stop-color="#37B987"/>
<stop offset="0.61" stop-color="#498DA1"/>
<stop offset="1" stop-color="#576EB4"/>
</linearGradient>
<linearGradient id="paint1_linear_364_7037" x1="104.764" y1="55.0123" x2="148.026" y2="-20.8714" gradientUnits="userSpaceOnUse">
<stop stop-color="#37B987"/>
<stop offset="0.61" stop-color="#498DA1"/>
<stop offset="1" stop-color="#576EB4"/>
</linearGradient>
<linearGradient id="paint2_linear_364_7037" x1="104.684" y1="67.3638" x2="139.858" y2="5.66564" gradientUnits="userSpaceOnUse">
<stop stop-color="#37B987"/>
<stop offset="0.61" stop-color="#498DA1"/>
<stop offset="1" stop-color="#576EB4"/>
</linearGradient>
</defs>
</svg>
