<svg width="28" height="24" viewBox="0 0 28 24" fill="none" xmlns="http://www.w3.org/2000/svg">
<g id="elements">
<path id="Icon" fill-rule="evenodd" clip-rule="evenodd" d="M17.7868 0.056988C15.2551 -0.00662322 12.7481 -0.00662639 10.2164 0.0569795L10.141 0.0588729C8.16436 0.108503 6.57384 0.148438 5.29916 0.370428C3.96463 0.602842 2.87999 1.04861 1.96369 1.9684C1.05122 2.88434 0.607791 3.95338 0.379797 5.26628C0.162707 6.51639 0.129644 8.0681 0.0886855 9.9903L0.0870627 10.0664C0.0595202 11.358 0.0595208 12.642 0.0870644 13.9336L0.0886874 14.0097C0.129647 15.9319 0.162712 17.4836 0.379803 18.7338C0.607797 20.0467 1.05123 21.1157 1.96369 22.0316C2.88 22.9514 3.96463 23.3972 5.29917 23.6296C6.57383 23.8516 8.16433 23.8915 10.1409 23.9412L10.2164 23.9431C12.7481 24.0067 15.2551 24.0067 17.7868 23.9431L17.8623 23.9412C19.8389 23.8915 21.4294 23.8516 22.704 23.6296C24.0386 23.3972 25.1232 22.9514 26.0395 22.0316C26.952 21.1157 27.3954 20.0467 27.6234 18.7338C27.8405 17.4836 27.8735 15.9319 27.9145 14.0097L27.9161 13.9336C27.9437 12.642 27.9437 11.358 27.9161 10.0665L27.9145 9.99034C27.8735 8.06812 27.8405 6.51642 27.6234 5.2663C27.3954 3.9534 26.952 2.88436 26.0395 1.96842C25.1232 1.04863 24.0386 0.602863 22.704 0.370446C21.4294 0.148454 19.8388 0.108516 17.8622 0.0588815L17.7868 0.056988ZM10.2652 2.00081C12.7644 1.93802 15.2388 1.93803 17.738 2.00082C19.8077 2.05282 21.254 2.09163 22.3704 2.28606C23.4431 2.47288 24.112 2.78867 24.662 3.34074C24.8874 3.56708 25.0727 3.81073 25.2252 4.0904L17.5241 8.45393C15.8968 9.37593 14.9094 9.73151 14.0017 9.73151C13.0941 9.73151 12.1066 9.37593 10.4794 8.45393L2.77801 4.09028C2.93057 3.81065 3.11577 3.56703 3.34123 3.34072C3.8912 2.78865 4.56005 2.47286 5.63277 2.28604C6.74919 2.09161 8.19547 2.05281 10.2652 2.00081ZM2.23254 6.01609C2.09841 7.04252 2.06877 8.33988 2.03107 10.1079C2.00411 11.3718 2.00411 12.6282 2.03107 13.8921C2.07407 15.9086 2.10658 17.3128 2.29558 18.4011C2.47652 19.4431 2.78742 20.1034 3.34123 20.6593C3.8912 21.2114 4.56005 21.5272 5.63278 21.714C6.7492 21.9084 8.19548 21.9472 10.2652 21.9992C12.7644 22.062 15.2388 22.062 17.738 21.9992C19.8077 21.9472 21.254 21.9084 22.3704 21.714C23.4431 21.5272 24.112 21.2114 24.662 20.6593C25.2158 20.1034 25.5267 19.4431 25.7076 18.4011C25.8966 17.3128 25.9291 15.9085 25.9721 13.8921C25.9991 12.6282 25.9991 11.3718 25.9721 10.1079C25.9344 8.33997 25.9048 7.04264 25.7707 6.01623L18.4826 10.1457C16.8062 11.0956 15.4438 11.676 14.0017 11.676C12.5596 11.676 11.1973 11.0956 9.52081 10.1457L2.23254 6.01609Z" fill="#161616"/>
</g>
</svg>
