<svg width="167" height="168" viewBox="0 0 167 168" fill="none" xmlns="http://www.w3.org/2000/svg">
<g id="QR code">
<rect width="166.759" height="166.759" transform="translate(0.121094 0.344727)" fill="white"/>
<g id="Vector">
<path d="M8.21791 3.37891H2.6543V8.94252H8.21791V3.37891Z" fill="black"/>
<path d="M13.7815 3.37891H8.21791V8.94252H13.7815V3.37891Z" fill="black"/>
<path d="M19.3451 3.37891H13.7815V8.94252H19.3451V3.37891Z" fill="black"/>
<path d="M24.9088 3.37891H19.3451V8.94252H24.9088V3.37891Z" fill="black"/>
<path d="M30.4724 3.37891H24.9088V8.94252H30.4724V3.37891Z" fill="black"/>
<path d="M36.036 3.37891H30.4724V8.94252H36.036V3.37891Z" fill="black"/>
<path d="M41.5996 3.37891H36.036V8.94252H41.5996V3.37891Z" fill="black"/>
<path d="M52.7268 3.37891H47.1632V8.94252H52.7268V3.37891Z" fill="black"/>
<path d="M63.8541 3.37891H58.2904V8.94252H63.8541V3.37891Z" fill="black"/>
<path d="M91.6721 3.37891H86.1085V8.94252H91.6721V3.37891Z" fill="black"/>
<path d="M102.799 3.37891H97.2357V8.94252H102.799V3.37891Z" fill="black"/>
<path d="M108.363 3.37891H102.799V8.94252H108.363V3.37891Z" fill="black"/>
<path d="M113.927 3.37891H108.363V8.94252H113.927V3.37891Z" fill="black"/>
<path d="M119.49 3.37891H113.927V8.94252H119.49V3.37891Z" fill="black"/>
<path d="M130.617 3.37891H125.054V8.94252H130.617V3.37891Z" fill="black"/>
<path d="M136.181 3.37891H130.617V8.94252H136.181V3.37891Z" fill="black"/>
<path d="M141.745 3.37891H136.181V8.94252H141.745V3.37891Z" fill="black"/>
<path d="M147.308 3.37891H141.745V8.94252H147.308V3.37891Z" fill="black"/>
<path d="M152.872 3.37891H147.308V8.94252H152.872V3.37891Z" fill="black"/>
<path d="M158.436 3.37891H152.872V8.94252H158.436V3.37891Z" fill="black"/>
<path d="M163.999 3.37891H158.436V8.94252H163.999V3.37891Z" fill="black"/>
<path d="M8.21791 8.94252H2.6543V14.5061H8.21791V8.94252Z" fill="black"/>
<path d="M41.5996 8.94252H36.036V14.5061H41.5996V8.94252Z" fill="black"/>
<path d="M58.2904 8.94252H52.7268V14.5061H58.2904V8.94252Z" fill="black"/>
<path d="M63.8541 8.94252H58.2904V14.5061H63.8541V8.94252Z" fill="black"/>
<path d="M91.6721 8.94252H86.1085V14.5061H91.6721V8.94252Z" fill="black"/>
<path d="M102.799 8.94252H97.2357V14.5061H102.799V8.94252Z" fill="black"/>
<path d="M108.363 8.94252H102.799V14.5061H108.363V8.94252Z" fill="black"/>
<path d="M113.927 8.94252H108.363V14.5061H113.927V8.94252Z" fill="black"/>
<path d="M119.49 8.94252H113.927V14.5061H119.49V8.94252Z" fill="black"/>
<path d="M130.617 8.94252H125.054V14.5061H130.617V8.94252Z" fill="black"/>
<path d="M163.999 8.94252H158.436V14.5061H163.999V8.94252Z" fill="black"/>
<path d="M8.21791 14.5061H2.6543V20.0697H8.21791V14.5061Z" fill="black"/>
<path d="M19.3451 14.5061H13.7815V20.0697H19.3451V14.5061Z" fill="black"/>
<path d="M24.9088 14.5061H19.3451V20.0697H24.9088V14.5061Z" fill="black"/>
<path d="M30.4724 14.5061H24.9088V20.0697H30.4724V14.5061Z" fill="black"/>
<path d="M41.5996 14.5061H36.036V20.0697H41.5996V14.5061Z" fill="black"/>
<path d="M69.4177 14.5061H63.8541V20.0697H69.4177V14.5061Z" fill="black"/>
<path d="M80.5449 14.5061H74.9813V20.0697H80.5449V14.5061Z" fill="black"/>
<path d="M86.1085 14.5061H80.5449V20.0697H86.1085V14.5061Z" fill="black"/>
<path d="M97.2357 14.5061H91.6721V20.0697H97.2357V14.5061Z" fill="black"/>
<path d="M102.799 14.5061H97.2357V20.0697H102.799V14.5061Z" fill="black"/>
<path d="M113.927 14.5061H108.363V20.0697H113.927V14.5061Z" fill="black"/>
<path d="M130.617 14.5061H125.054V20.0697H130.617V14.5061Z" fill="black"/>
<path d="M141.745 14.5061H136.181V20.0697H141.745V14.5061Z" fill="black"/>
<path d="M147.308 14.5061H141.745V20.0697H147.308V14.5061Z" fill="black"/>
<path d="M152.872 14.5061H147.308V20.0697H152.872V14.5061Z" fill="black"/>
<path d="M163.999 14.5061H158.436V20.0697H163.999V14.5061Z" fill="black"/>
<path d="M8.21791 20.0697H2.6543V25.6334H8.21791V20.0697Z" fill="black"/>
<path d="M19.3451 20.0697H13.7815V25.6334H19.3451V20.0697Z" fill="black"/>
<path d="M24.9088 20.0697H19.3451V25.6334H24.9088V20.0697Z" fill="black"/>
<path d="M30.4724 20.0697H24.9088V25.6334H30.4724V20.0697Z" fill="black"/>
<path d="M41.5996 20.0697H36.036V25.6334H41.5996V20.0697Z" fill="black"/>
<path d="M52.7268 20.0697H47.1632V25.6334H52.7268V20.0697Z" fill="black"/>
<path d="M58.2904 20.0697H52.7268V25.6334H58.2904V20.0697Z" fill="black"/>
<path d="M69.4177 20.0697H63.8541V25.6334H69.4177V20.0697Z" fill="black"/>
<path d="M86.1085 20.0697H80.5449V25.6334H86.1085V20.0697Z" fill="black"/>
<path d="M91.6721 20.0697H86.1085V25.6334H91.6721V20.0697Z" fill="black"/>
<path d="M108.363 20.0697H102.799V25.6334H108.363V20.0697Z" fill="black"/>
<path d="M130.617 20.0697H125.054V25.6334H130.617V20.0697Z" fill="black"/>
<path d="M141.745 20.0697H136.181V25.6334H141.745V20.0697Z" fill="black"/>
<path d="M147.308 20.0697H141.745V25.6334H147.308V20.0697Z" fill="black"/>
<path d="M152.872 20.0697H147.308V25.6334H152.872V20.0697Z" fill="black"/>
<path d="M163.999 20.0697H158.436V25.6334H163.999V20.0697Z" fill="black"/>
<path d="M8.21791 25.6334H2.6543V31.197H8.21791V25.6334Z" fill="black"/>
<path d="M19.3451 25.6334H13.7815V31.197H19.3451V25.6334Z" fill="black"/>
<path d="M24.9088 25.6334H19.3451V31.197H24.9088V25.6334Z" fill="black"/>
<path d="M30.4724 25.6334H24.9088V31.197H30.4724V25.6334Z" fill="black"/>
<path d="M41.5996 25.6334H36.036V31.197H41.5996V25.6334Z" fill="black"/>
<path d="M52.7268 25.6334H47.1632V31.197H52.7268V25.6334Z" fill="black"/>
<path d="M80.5449 25.6334H74.9813V31.197H80.5449V25.6334Z" fill="black"/>
<path d="M86.1085 25.6334H80.5449V31.197H86.1085V25.6334Z" fill="black"/>
<path d="M91.6721 25.6334H86.1085V31.197H91.6721V25.6334Z" fill="black"/>
<path d="M97.2357 25.6334H91.6721V31.197H97.2357V25.6334Z" fill="black"/>
<path d="M102.799 25.6334H97.2357V31.197H102.799V25.6334Z" fill="black"/>
<path d="M108.363 25.6334H102.799V31.197H108.363V25.6334Z" fill="black"/>
<path d="M119.49 25.6334H113.927V31.197H119.49V25.6334Z" fill="black"/>
<path d="M130.617 25.6334H125.054V31.197H130.617V25.6334Z" fill="black"/>
<path d="M141.745 25.6334H136.181V31.197H141.745V25.6334Z" fill="black"/>
<path d="M147.308 25.6334H141.745V31.197H147.308V25.6334Z" fill="black"/>
<path d="M152.872 25.6334H147.308V31.197H152.872V25.6334Z" fill="black"/>
<path d="M163.999 25.6334H158.436V31.197H163.999V25.6334Z" fill="black"/>
<path d="M8.21791 31.197H2.6543V36.7606H8.21791V31.197Z" fill="black"/>
<path d="M41.5996 31.197H36.036V36.7606H41.5996V31.197Z" fill="black"/>
<path d="M52.7268 31.197H47.1632V36.7606H52.7268V31.197Z" fill="black"/>
<path d="M80.5449 31.197H74.9813V36.7606H80.5449V31.197Z" fill="black"/>
<path d="M102.799 31.197H97.2357V36.7606H102.799V31.197Z" fill="black"/>
<path d="M113.927 31.197H108.363V36.7606H113.927V31.197Z" fill="black"/>
<path d="M130.617 31.197H125.054V36.7606H130.617V31.197Z" fill="black"/>
<path d="M163.999 31.197H158.436V36.7606H163.999V31.197Z" fill="black"/>
<path d="M8.21791 36.7606H2.6543V42.3242H8.21791V36.7606Z" fill="black"/>
<path d="M13.7815 36.7606H8.21791V42.3242H13.7815V36.7606Z" fill="black"/>
<path d="M19.3451 36.7606H13.7815V42.3242H19.3451V36.7606Z" fill="black"/>
<path d="M24.9088 36.7606H19.3451V42.3242H24.9088V36.7606Z" fill="black"/>
<path d="M30.4724 36.7606H24.9088V42.3242H30.4724V36.7606Z" fill="black"/>
<path d="M36.036 36.7606H30.4724V42.3242H36.036V36.7606Z" fill="black"/>
<path d="M41.5996 36.7606H36.036V42.3242H41.5996V36.7606Z" fill="black"/>
<path d="M52.7268 36.7606H47.1632V42.3242H52.7268V36.7606Z" fill="black"/>
<path d="M63.8541 36.7606H58.2904V42.3242H63.8541V36.7606Z" fill="black"/>
<path d="M74.9813 36.7606H69.4177V42.3242H74.9813V36.7606Z" fill="black"/>
<path d="M86.1085 36.7606H80.5449V42.3242H86.1085V36.7606Z" fill="black"/>
<path d="M97.2357 36.7606H91.6721V42.3242H97.2357V36.7606Z" fill="black"/>
<path d="M108.363 36.7606H102.799V42.3242H108.363V36.7606Z" fill="black"/>
<path d="M119.49 36.7606H113.927V42.3242H119.49V36.7606Z" fill="black"/>
<path d="M130.617 36.7606H125.054V42.3242H130.617V36.7606Z" fill="black"/>
<path d="M136.181 36.7606H130.617V42.3242H136.181V36.7606Z" fill="black"/>
<path d="M141.745 36.7606H136.181V42.3242H141.745V36.7606Z" fill="black"/>
<path d="M147.308 36.7606H141.745V42.3242H147.308V36.7606Z" fill="black"/>
<path d="M152.872 36.7606H147.308V42.3242H152.872V36.7606Z" fill="black"/>
<path d="M158.436 36.7606H152.872V42.3242H158.436V36.7606Z" fill="black"/>
<path d="M163.999 36.7606H158.436V42.3242H163.999V36.7606Z" fill="black"/>
<path d="M52.7268 42.3242H47.1632V47.8878H52.7268V42.3242Z" fill="black"/>
<path d="M63.8541 42.3242H58.2904V47.8878H63.8541V42.3242Z" fill="black"/>
<path d="M69.4177 42.3242H63.8541V47.8878H69.4177V42.3242Z" fill="black"/>
<path d="M80.5449 42.3242H74.9813V47.8878H80.5449V42.3242Z" fill="black"/>
<path d="M91.6721 42.3242H86.1085V47.8878H91.6721V42.3242Z" fill="black"/>
<path d="M97.2357 42.3242H91.6721V47.8878H97.2357V42.3242Z" fill="black"/>
<path d="M108.363 42.3242H102.799V47.8878H108.363V42.3242Z" fill="black"/>
<path d="M8.21791 47.8878H2.6543V53.4514H8.21791V47.8878Z" fill="black"/>
<path d="M13.7815 47.8878H8.21791V53.4514H13.7815V47.8878Z" fill="black"/>
<path d="M19.3451 47.8878H13.7815V53.4514H19.3451V47.8878Z" fill="black"/>
<path d="M30.4724 47.8878H24.9088V53.4514H30.4724V47.8878Z" fill="black"/>
<path d="M41.5996 47.8878H36.036V53.4514H41.5996V47.8878Z" fill="black"/>
<path d="M52.7268 47.8878H47.1632V53.4514H52.7268V47.8878Z" fill="black"/>
<path d="M58.2904 47.8878H52.7268V53.4514H58.2904V47.8878Z" fill="black"/>
<path d="M74.9813 47.8878H69.4177V53.4514H74.9813V47.8878Z" fill="black"/>
<path d="M97.2357 47.8878H91.6721V53.4514H97.2357V47.8878Z" fill="black"/>
<path d="M102.799 47.8878H97.2357V53.4514H102.799V47.8878Z" fill="black"/>
<path d="M108.363 47.8878H102.799V53.4514H108.363V47.8878Z" fill="black"/>
<path d="M119.49 47.8878H113.927V53.4514H119.49V47.8878Z" fill="black"/>
<path d="M125.054 47.8878H119.49V53.4514H125.054V47.8878Z" fill="black"/>
<path d="M130.617 47.8878H125.054V53.4514H130.617V47.8878Z" fill="black"/>
<path d="M136.181 47.8878H130.617V53.4514H136.181V47.8878Z" fill="black"/>
<path d="M141.745 47.8878H136.181V53.4514H141.745V47.8878Z" fill="black"/>
<path d="M147.308 47.8878H141.745V53.4514H147.308V47.8878Z" fill="black"/>
<path d="M163.999 47.8878H158.436V53.4514H163.999V47.8878Z" fill="black"/>
<path d="M19.3451 53.4514H13.7815V59.0151H19.3451V53.4514Z" fill="black"/>
<path d="M47.1632 53.4514H41.5996V59.0151H47.1632V53.4514Z" fill="black"/>
<path d="M58.2904 53.4514H52.7268V59.0151H58.2904V53.4514Z" fill="black"/>
<path d="M63.8541 53.4514H58.2904V59.0151H63.8541V53.4514Z" fill="black"/>
<path d="M80.5449 53.4514H74.9813V59.0151H80.5449V53.4514Z" fill="black"/>
<path d="M91.6721 53.4514H86.1085V59.0151H91.6721V53.4514Z" fill="black"/>
<path d="M97.2357 53.4514H91.6721V59.0151H97.2357V53.4514Z" fill="black"/>
<path d="M119.49 53.4514H113.927V59.0151H119.49V53.4514Z" fill="black"/>
<path d="M125.054 53.4514H119.49V59.0151H125.054V53.4514Z" fill="black"/>
<path d="M136.181 53.4514H130.617V59.0151H136.181V53.4514Z" fill="black"/>
<path d="M141.745 53.4514H136.181V59.0151H141.745V53.4514Z" fill="black"/>
<path d="M19.3451 59.0151H13.7815V64.5787H19.3451V59.0151Z" fill="black"/>
<path d="M30.4724 59.0151H24.9088V64.5787H30.4724V59.0151Z" fill="black"/>
<path d="M36.036 59.0151H30.4724V64.5787H36.036V59.0151Z" fill="black"/>
<path d="M41.5996 59.0151H36.036V64.5787H41.5996V59.0151Z" fill="black"/>
<path d="M58.2904 59.0151H52.7268V64.5787H58.2904V59.0151Z" fill="black"/>
<path d="M80.5449 59.0151H74.9813V64.5787H80.5449V59.0151Z" fill="black"/>
<path d="M86.1085 59.0151H80.5449V64.5787H86.1085V59.0151Z" fill="black"/>
<path d="M108.363 59.0151H102.799V64.5787H108.363V59.0151Z" fill="black"/>
<path d="M8.21791 64.5787H2.6543V70.1423H8.21791V64.5787Z" fill="black"/>
<path d="M19.3451 64.5787H13.7815V70.1423H19.3451V64.5787Z" fill="black"/>
<path d="M36.036 64.5787H30.4724V70.1423H36.036V64.5787Z" fill="black"/>
<path d="M47.1632 64.5787H41.5996V70.1423H47.1632V64.5787Z" fill="black"/>
<path d="M58.2904 64.5787H52.7268V70.1423H58.2904V64.5787Z" fill="black"/>
<path d="M63.8541 64.5787H58.2904V70.1423H63.8541V64.5787Z" fill="black"/>
<path d="M69.4177 64.5787H63.8541V70.1423H69.4177V64.5787Z" fill="black"/>
<path d="M74.9813 64.5787H69.4177V70.1423H74.9813V64.5787Z" fill="black"/>
<path d="M80.5449 64.5787H74.9813V70.1423H80.5449V64.5787Z" fill="black"/>
<path d="M86.1085 64.5787H80.5449V70.1423H86.1085V64.5787Z" fill="black"/>
<path d="M97.2357 64.5787H91.6721V70.1423H97.2357V64.5787Z" fill="black"/>
<path d="M102.799 64.5787H97.2357V70.1423H102.799V64.5787Z" fill="black"/>
<path d="M108.363 64.5787H102.799V70.1423H108.363V64.5787Z" fill="black"/>
<path d="M113.927 64.5787H108.363V70.1423H113.927V64.5787Z" fill="black"/>
<path d="M136.181 64.5787H130.617V70.1423H136.181V64.5787Z" fill="black"/>
<path d="M141.745 64.5787H136.181V70.1423H141.745V64.5787Z" fill="black"/>
<path d="M152.872 64.5787H147.308V70.1423H152.872V64.5787Z" fill="black"/>
<path d="M24.9088 70.1423H19.3451V75.7059H24.9088V70.1423Z" fill="black"/>
<path d="M41.5996 70.1423H36.036V75.7059H41.5996V70.1423Z" fill="black"/>
<path d="M47.1632 70.1423H41.5996V75.7059H47.1632V70.1423Z" fill="black"/>
<path d="M58.2904 70.1423H52.7268V75.7059H58.2904V70.1423Z" fill="black"/>
<path d="M63.8541 70.1423H58.2904V75.7059H63.8541V70.1423Z" fill="black"/>
<path d="M69.4177 70.1423H63.8541V75.7059H69.4177V70.1423Z" fill="black"/>
<path d="M80.5449 70.1423H74.9813V75.7059H80.5449V70.1423Z" fill="black"/>
<path d="M102.799 70.1423H97.2357V75.7059H102.799V70.1423Z" fill="black"/>
<path d="M108.363 70.1423H102.799V75.7059H108.363V70.1423Z" fill="black"/>
<path d="M125.054 70.1423H119.49V75.7059H125.054V70.1423Z" fill="black"/>
<path d="M152.872 70.1423H147.308V75.7059H152.872V70.1423Z" fill="black"/>
<path d="M163.999 70.1423H158.436V75.7059H163.999V70.1423Z" fill="black"/>
<path d="M8.21791 75.7059H2.6543V81.2695H8.21791V75.7059Z" fill="black"/>
<path d="M13.7815 75.7059H8.21791V81.2695H13.7815V75.7059Z" fill="black"/>
<path d="M19.3451 75.7059H13.7815V81.2695H19.3451V75.7059Z" fill="black"/>
<path d="M30.4724 75.7059H24.9088V81.2695H30.4724V75.7059Z" fill="black"/>
<path d="M36.036 75.7059H30.4724V81.2695H36.036V75.7059Z" fill="black"/>
<path d="M52.7268 75.7059H47.1632V81.2695H52.7268V75.7059Z" fill="black"/>
<path d="M74.9813 75.7059H69.4177V81.2695H74.9813V75.7059Z" fill="black"/>
<path d="M91.6721 75.7059H86.1085V81.2695H91.6721V75.7059Z" fill="black"/>
<path d="M108.363 75.7059H102.799V81.2695H108.363V75.7059Z" fill="black"/>
<path d="M113.927 75.7059H108.363V81.2695H113.927V75.7059Z" fill="black"/>
<path d="M119.49 75.7059H113.927V81.2695H119.49V75.7059Z" fill="black"/>
<path d="M125.054 75.7059H119.49V81.2695H125.054V75.7059Z" fill="black"/>
<path d="M130.617 75.7059H125.054V81.2695H130.617V75.7059Z" fill="black"/>
<path d="M136.181 75.7059H130.617V81.2695H136.181V75.7059Z" fill="black"/>
<path d="M141.745 75.7059H136.181V81.2695H141.745V75.7059Z" fill="black"/>
<path d="M147.308 75.7059H141.745V81.2695H147.308V75.7059Z" fill="black"/>
<path d="M158.436 75.7059H152.872V81.2695H158.436V75.7059Z" fill="black"/>
<path d="M163.999 75.7059H158.436V81.2695H163.999V75.7059Z" fill="black"/>
<path d="M8.21791 81.2695H2.6543V86.8331H8.21791V81.2695Z" fill="black"/>
<path d="M13.7815 81.2695H8.21791V86.8331H13.7815V81.2695Z" fill="black"/>
<path d="M19.3451 81.2695H13.7815V86.8331H19.3451V81.2695Z" fill="black"/>
<path d="M24.9088 81.2695H19.3451V86.8331H24.9088V81.2695Z" fill="black"/>
<path d="M36.036 81.2695H30.4724V86.8331H36.036V81.2695Z" fill="black"/>
<path d="M41.5996 81.2695H36.036V86.8331H41.5996V81.2695Z" fill="black"/>
<path d="M47.1632 81.2695H41.5996V86.8331H47.1632V81.2695Z" fill="black"/>
<path d="M52.7268 81.2695H47.1632V86.8331H52.7268V81.2695Z" fill="black"/>
<path d="M58.2904 81.2695H52.7268V86.8331H58.2904V81.2695Z" fill="black"/>
<path d="M63.8541 81.2695H58.2904V86.8331H63.8541V81.2695Z" fill="black"/>
<path d="M69.4177 81.2695H63.8541V86.8331H69.4177V81.2695Z" fill="black"/>
<path d="M74.9813 81.2695H69.4177V86.8331H74.9813V81.2695Z" fill="black"/>
<path d="M86.1085 81.2695H80.5449V86.8331H86.1085V81.2695Z" fill="black"/>
<path d="M91.6721 81.2695H86.1085V86.8331H91.6721V81.2695Z" fill="black"/>
<path d="M108.363 81.2695H102.799V86.8331H108.363V81.2695Z" fill="black"/>
<path d="M147.308 81.2695H141.745V86.8331H147.308V81.2695Z" fill="black"/>
<path d="M8.21791 86.8331H2.6543V92.3967H8.21791V86.8331Z" fill="black"/>
<path d="M13.7815 86.8331H8.21791V92.3967H13.7815V86.8331Z" fill="black"/>
<path d="M24.9088 86.8331H19.3451V92.3967H24.9088V86.8331Z" fill="black"/>
<path d="M30.4724 86.8331H24.9088V92.3967H30.4724V86.8331Z" fill="black"/>
<path d="M52.7268 86.8331H47.1632V92.3967H52.7268V86.8331Z" fill="black"/>
<path d="M69.4177 86.8331H63.8541V92.3967H69.4177V86.8331Z" fill="black"/>
<path d="M86.1085 86.8331H80.5449V92.3967H86.1085V86.8331Z" fill="black"/>
<path d="M97.2357 86.8331H91.6721V92.3967H97.2357V86.8331Z" fill="black"/>
<path d="M113.927 86.8331H108.363V92.3967H113.927V86.8331Z" fill="black"/>
<path d="M130.617 86.8331H125.054V92.3967H130.617V86.8331Z" fill="black"/>
<path d="M141.745 86.8331H136.181V92.3967H141.745V86.8331Z" fill="black"/>
<path d="M158.436 86.8331H152.872V92.3967H158.436V86.8331Z" fill="black"/>
<path d="M41.5996 92.3967H36.036V97.9604H41.5996V92.3967Z" fill="black"/>
<path d="M52.7268 92.3967H47.1632V97.9604H52.7268V92.3967Z" fill="black"/>
<path d="M91.6721 92.3967H86.1085V97.9604H91.6721V92.3967Z" fill="black"/>
<path d="M108.363 92.3967H102.799V97.9604H108.363V92.3967Z" fill="black"/>
<path d="M113.927 92.3967H108.363V97.9604H113.927V92.3967Z" fill="black"/>
<path d="M125.054 92.3967H119.49V97.9604H125.054V92.3967Z" fill="black"/>
<path d="M130.617 92.3967H125.054V97.9604H130.617V92.3967Z" fill="black"/>
<path d="M136.181 92.3967H130.617V97.9604H136.181V92.3967Z" fill="black"/>
<path d="M141.745 92.3967H136.181V97.9604H141.745V92.3967Z" fill="black"/>
<path d="M147.308 92.3967H141.745V97.9604H147.308V92.3967Z" fill="black"/>
<path d="M152.872 92.3967H147.308V97.9604H152.872V92.3967Z" fill="black"/>
<path d="M163.999 92.3967H158.436V97.9604H163.999V92.3967Z" fill="black"/>
<path d="M24.9088 97.9604H19.3451V103.524H24.9088V97.9604Z" fill="black"/>
<path d="M36.036 97.9604H30.4724V103.524H36.036V97.9604Z" fill="black"/>
<path d="M52.7268 97.9604H47.1632V103.524H52.7268V97.9604Z" fill="black"/>
<path d="M69.4177 97.9604H63.8541V103.524H69.4177V97.9604Z" fill="black"/>
<path d="M86.1085 97.9604H80.5449V103.524H86.1085V97.9604Z" fill="black"/>
<path d="M102.799 97.9604H97.2357V103.524H102.799V97.9604Z" fill="black"/>
<path d="M108.363 97.9604H102.799V103.524H108.363V97.9604Z" fill="black"/>
<path d="M125.054 97.9604H119.49V103.524H125.054V97.9604Z" fill="black"/>
<path d="M141.745 97.9604H136.181V103.524H141.745V97.9604Z" fill="black"/>
<path d="M163.999 97.9604H158.436V103.524H163.999V97.9604Z" fill="black"/>
<path d="M13.7815 103.524H8.21791V109.088H13.7815V103.524Z" fill="black"/>
<path d="M24.9088 103.524H19.3451V109.088H24.9088V103.524Z" fill="black"/>
<path d="M36.036 103.524H30.4724V109.088H36.036V103.524Z" fill="black"/>
<path d="M41.5996 103.524H36.036V109.088H41.5996V103.524Z" fill="black"/>
<path d="M52.7268 103.524H47.1632V109.088H52.7268V103.524Z" fill="black"/>
<path d="M63.8541 103.524H58.2904V109.088H63.8541V103.524Z" fill="black"/>
<path d="M74.9813 103.524H69.4177V109.088H74.9813V103.524Z" fill="black"/>
<path d="M91.6721 103.524H86.1085V109.088H91.6721V103.524Z" fill="black"/>
<path d="M97.2357 103.524H91.6721V109.088H97.2357V103.524Z" fill="black"/>
<path d="M119.49 103.524H113.927V109.088H119.49V103.524Z" fill="black"/>
<path d="M125.054 103.524H119.49V109.088H125.054V103.524Z" fill="black"/>
<path d="M136.181 103.524H130.617V109.088H136.181V103.524Z" fill="black"/>
<path d="M147.308 103.524H141.745V109.088H147.308V103.524Z" fill="black"/>
<path d="M152.872 103.524H147.308V109.088H152.872V103.524Z" fill="black"/>
<path d="M163.999 103.524H158.436V109.088H163.999V103.524Z" fill="black"/>
<path d="M13.7815 109.088H8.21791V114.651H13.7815V109.088Z" fill="black"/>
<path d="M30.4724 109.088H24.9088V114.651H30.4724V109.088Z" fill="black"/>
<path d="M47.1632 109.088H41.5996V114.651H47.1632V109.088Z" fill="black"/>
<path d="M58.2904 109.088H52.7268V114.651H58.2904V109.088Z" fill="black"/>
<path d="M74.9813 109.088H69.4177V114.651H74.9813V109.088Z" fill="black"/>
<path d="M86.1085 109.088H80.5449V114.651H86.1085V109.088Z" fill="black"/>
<path d="M102.799 109.088H97.2357V114.651H102.799V109.088Z" fill="black"/>
<path d="M108.363 109.088H102.799V114.651H108.363V109.088Z" fill="black"/>
<path d="M113.927 109.088H108.363V114.651H113.927V109.088Z" fill="black"/>
<path d="M119.49 109.088H113.927V114.651H119.49V109.088Z" fill="black"/>
<path d="M125.054 109.088H119.49V114.651H125.054V109.088Z" fill="black"/>
<path d="M130.617 109.088H125.054V114.651H130.617V109.088Z" fill="black"/>
<path d="M141.745 109.088H136.181V114.651H141.745V109.088Z" fill="black"/>
<path d="M158.436 109.088H152.872V114.651H158.436V109.088Z" fill="black"/>
<path d="M8.21791 114.651H2.6543V120.215H8.21791V114.651Z" fill="black"/>
<path d="M30.4724 114.651H24.9088V120.215H30.4724V114.651Z" fill="black"/>
<path d="M36.036 114.651H30.4724V120.215H36.036V114.651Z" fill="black"/>
<path d="M41.5996 114.651H36.036V120.215H41.5996V114.651Z" fill="black"/>
<path d="M47.1632 114.651H41.5996V120.215H47.1632V114.651Z" fill="black"/>
<path d="M52.7268 114.651H47.1632V120.215H52.7268V114.651Z" fill="black"/>
<path d="M58.2904 114.651H52.7268V120.215H58.2904V114.651Z" fill="black"/>
<path d="M63.8541 114.651H58.2904V120.215H63.8541V114.651Z" fill="black"/>
<path d="M80.5449 114.651H74.9813V120.215H80.5449V114.651Z" fill="black"/>
<path d="M86.1085 114.651H80.5449V120.215H86.1085V114.651Z" fill="black"/>
<path d="M113.927 114.651H108.363V120.215H113.927V114.651Z" fill="black"/>
<path d="M119.49 114.651H113.927V120.215H119.49V114.651Z" fill="black"/>
<path d="M125.054 114.651H119.49V120.215H125.054V114.651Z" fill="black"/>
<path d="M130.617 114.651H125.054V120.215H130.617V114.651Z" fill="black"/>
<path d="M136.181 114.651H130.617V120.215H136.181V114.651Z" fill="black"/>
<path d="M141.745 114.651H136.181V120.215H141.745V114.651Z" fill="black"/>
<path d="M163.999 114.651H158.436V120.215H163.999V114.651Z" fill="black"/>
<path d="M52.7268 120.215H47.1632V125.778H52.7268V120.215Z" fill="black"/>
<path d="M69.4177 120.215H63.8541V125.778H69.4177V120.215Z" fill="black"/>
<path d="M91.6721 120.215H86.1085V125.778H91.6721V120.215Z" fill="black"/>
<path d="M97.2357 120.215H91.6721V125.778H97.2357V120.215Z" fill="black"/>
<path d="M113.927 120.215H108.363V125.778H113.927V120.215Z" fill="black"/>
<path d="M119.49 120.215H113.927V125.778H119.49V120.215Z" fill="black"/>
<path d="M141.745 120.215H136.181V125.778H141.745V120.215Z" fill="black"/>
<path d="M8.21791 125.778H2.6543V131.342H8.21791V125.778Z" fill="black"/>
<path d="M13.7815 125.778H8.21791V131.342H13.7815V125.778Z" fill="black"/>
<path d="M19.3451 125.778H13.7815V131.342H19.3451V125.778Z" fill="black"/>
<path d="M24.9088 125.778H19.3451V131.342H24.9088V125.778Z" fill="black"/>
<path d="M30.4724 125.778H24.9088V131.342H30.4724V125.778Z" fill="black"/>
<path d="M36.036 125.778H30.4724V131.342H36.036V125.778Z" fill="black"/>
<path d="M41.5996 125.778H36.036V131.342H41.5996V125.778Z" fill="black"/>
<path d="M63.8541 125.778H58.2904V131.342H63.8541V125.778Z" fill="black"/>
<path d="M69.4177 125.778H63.8541V131.342H69.4177V125.778Z" fill="black"/>
<path d="M74.9813 125.778H69.4177V131.342H74.9813V125.778Z" fill="black"/>
<path d="M80.5449 125.778H74.9813V131.342H80.5449V125.778Z" fill="black"/>
<path d="M86.1085 125.778H80.5449V131.342H86.1085V125.778Z" fill="black"/>
<path d="M91.6721 125.778H86.1085V131.342H91.6721V125.778Z" fill="black"/>
<path d="M113.927 125.778H108.363V131.342H113.927V125.778Z" fill="black"/>
<path d="M119.49 125.778H113.927V131.342H119.49V125.778Z" fill="black"/>
<path d="M130.617 125.778H125.054V131.342H130.617V125.778Z" fill="black"/>
<path d="M141.745 125.778H136.181V131.342H141.745V125.778Z" fill="black"/>
<path d="M8.21791 131.342H2.6543V136.906H8.21791V131.342Z" fill="black"/>
<path d="M41.5996 131.342H36.036V136.906H41.5996V131.342Z" fill="black"/>
<path d="M58.2904 131.342H52.7268V136.906H58.2904V131.342Z" fill="black"/>
<path d="M63.8541 131.342H58.2904V136.906H63.8541V131.342Z" fill="black"/>
<path d="M74.9813 131.342H69.4177V136.906H74.9813V131.342Z" fill="black"/>
<path d="M86.1085 131.342H80.5449V136.906H86.1085V131.342Z" fill="black"/>
<path d="M97.2357 131.342H91.6721V136.906H97.2357V131.342Z" fill="black"/>
<path d="M113.927 131.342H108.363V136.906H113.927V131.342Z" fill="black"/>
<path d="M119.49 131.342H113.927V136.906H119.49V131.342Z" fill="black"/>
<path d="M141.745 131.342H136.181V136.906H141.745V131.342Z" fill="black"/>
<path d="M147.308 131.342H141.745V136.906H147.308V131.342Z" fill="black"/>
<path d="M152.872 131.342H147.308V136.906H152.872V131.342Z" fill="black"/>
<path d="M158.436 131.342H152.872V136.906H158.436V131.342Z" fill="black"/>
<path d="M8.21791 136.906H2.6543V142.469H8.21791V136.906Z" fill="black"/>
<path d="M19.3451 136.906H13.7815V142.469H19.3451V136.906Z" fill="black"/>
<path d="M24.9088 136.906H19.3451V142.469H24.9088V136.906Z" fill="black"/>
<path d="M30.4724 136.906H24.9088V142.469H30.4724V136.906Z" fill="black"/>
<path d="M41.5996 136.906H36.036V142.469H41.5996V136.906Z" fill="black"/>
<path d="M52.7268 136.906H47.1632V142.469H52.7268V136.906Z" fill="black"/>
<path d="M58.2904 136.906H52.7268V142.469H58.2904V136.906Z" fill="black"/>
<path d="M80.5449 136.906H74.9813V142.469H80.5449V136.906Z" fill="black"/>
<path d="M86.1085 136.906H80.5449V142.469H86.1085V136.906Z" fill="black"/>
<path d="M91.6721 136.906H86.1085V142.469H91.6721V136.906Z" fill="black"/>
<path d="M102.799 136.906H97.2357V142.469H102.799V136.906Z" fill="black"/>
<path d="M113.927 136.906H108.363V142.469H113.927V136.906Z" fill="black"/>
<path d="M119.49 136.906H113.927V142.469H119.49V136.906Z" fill="black"/>
<path d="M125.054 136.906H119.49V142.469H125.054V136.906Z" fill="black"/>
<path d="M130.617 136.906H125.054V142.469H130.617V136.906Z" fill="black"/>
<path d="M136.181 136.906H130.617V142.469H136.181V136.906Z" fill="black"/>
<path d="M141.745 136.906H136.181V142.469H141.745V136.906Z" fill="black"/>
<path d="M152.872 136.906H147.308V142.469H152.872V136.906Z" fill="black"/>
<path d="M8.21791 142.469H2.6543V148.033H8.21791V142.469Z" fill="black"/>
<path d="M19.3451 142.469H13.7815V148.033H19.3451V142.469Z" fill="black"/>
<path d="M24.9088 142.469H19.3451V148.033H24.9088V142.469Z" fill="black"/>
<path d="M30.4724 142.469H24.9088V148.033H30.4724V142.469Z" fill="black"/>
<path d="M41.5996 142.469H36.036V148.033H41.5996V142.469Z" fill="black"/>
<path d="M58.2904 142.469H52.7268V148.033H58.2904V142.469Z" fill="black"/>
<path d="M69.4177 142.469H63.8541V148.033H69.4177V142.469Z" fill="black"/>
<path d="M80.5449 142.469H74.9813V148.033H80.5449V142.469Z" fill="black"/>
<path d="M86.1085 142.469H80.5449V148.033H86.1085V142.469Z" fill="black"/>
<path d="M91.6721 142.469H86.1085V148.033H91.6721V142.469Z" fill="black"/>
<path d="M97.2357 142.469H91.6721V148.033H97.2357V142.469Z" fill="black"/>
<path d="M113.927 142.469H108.363V148.033H113.927V142.469Z" fill="black"/>
<path d="M141.745 142.469H136.181V148.033H141.745V142.469Z" fill="black"/>
<path d="M8.21791 148.033H2.6543V153.596H8.21791V148.033Z" fill="black"/>
<path d="M19.3451 148.033H13.7815V153.596H19.3451V148.033Z" fill="black"/>
<path d="M24.9088 148.033H19.3451V153.596H24.9088V148.033Z" fill="black"/>
<path d="M30.4724 148.033H24.9088V153.596H30.4724V148.033Z" fill="black"/>
<path d="M41.5996 148.033H36.036V153.596H41.5996V148.033Z" fill="black"/>
<path d="M52.7268 148.033H47.1632V153.596H52.7268V148.033Z" fill="black"/>
<path d="M58.2904 148.033H52.7268V153.596H58.2904V148.033Z" fill="black"/>
<path d="M63.8541 148.033H58.2904V153.596H63.8541V148.033Z" fill="black"/>
<path d="M80.5449 148.033H74.9813V153.596H80.5449V148.033Z" fill="black"/>
<path d="M91.6721 148.033H86.1085V153.596H91.6721V148.033Z" fill="black"/>
<path d="M113.927 148.033H108.363V153.596H113.927V148.033Z" fill="black"/>
<path d="M119.49 148.033H113.927V153.596H119.49V148.033Z" fill="black"/>
<path d="M152.872 148.033H147.308V153.596H152.872V148.033Z" fill="black"/>
<path d="M158.436 148.033H152.872V153.596H158.436V148.033Z" fill="black"/>
<path d="M8.21791 153.596H2.6543V159.16H8.21791V153.596Z" fill="black"/>
<path d="M41.5996 153.596H36.036V159.16H41.5996V153.596Z" fill="black"/>
<path d="M52.7268 153.596H47.1632V159.16H52.7268V153.596Z" fill="black"/>
<path d="M58.2904 153.596H52.7268V159.16H58.2904V153.596Z" fill="black"/>
<path d="M80.5449 153.596H74.9813V159.16H80.5449V153.596Z" fill="black"/>
<path d="M97.2357 153.596H91.6721V159.16H97.2357V153.596Z" fill="black"/>
<path d="M119.49 153.596H113.927V159.16H119.49V153.596Z" fill="black"/>
<path d="M130.617 153.596H125.054V159.16H130.617V153.596Z" fill="black"/>
<path d="M136.181 153.596H130.617V159.16H136.181V153.596Z" fill="black"/>
<path d="M141.745 153.596H136.181V159.16H141.745V153.596Z" fill="black"/>
<path d="M147.308 153.596H141.745V159.16H147.308V153.596Z" fill="black"/>
<path d="M152.872 153.596H147.308V159.16H152.872V153.596Z" fill="black"/>
<path d="M8.21791 159.16H2.6543V164.724H8.21791V159.16Z" fill="black"/>
<path d="M13.7815 159.16H8.21791V164.724H13.7815V159.16Z" fill="black"/>
<path d="M19.3451 159.16H13.7815V164.724H19.3451V159.16Z" fill="black"/>
<path d="M24.9088 159.16H19.3451V164.724H24.9088V159.16Z" fill="black"/>
<path d="M30.4724 159.16H24.9088V164.724H30.4724V159.16Z" fill="black"/>
<path d="M36.036 159.16H30.4724V164.724H36.036V159.16Z" fill="black"/>
<path d="M41.5996 159.16H36.036V164.724H41.5996V159.16Z" fill="black"/>
<path d="M52.7268 159.16H47.1632V164.724H52.7268V159.16Z" fill="black"/>
<path d="M69.4177 159.16H63.8541V164.724H69.4177V159.16Z" fill="black"/>
<path d="M74.9813 159.16H69.4177V164.724H74.9813V159.16Z" fill="black"/>
<path d="M80.5449 159.16H74.9813V164.724H80.5449V159.16Z" fill="black"/>
<path d="M86.1085 159.16H80.5449V164.724H86.1085V159.16Z" fill="black"/>
<path d="M91.6721 159.16H86.1085V164.724H91.6721V159.16Z" fill="black"/>
<path d="M97.2357 159.16H91.6721V164.724H97.2357V159.16Z" fill="black"/>
<path d="M108.363 159.16H102.799V164.724H108.363V159.16Z" fill="black"/>
<path d="M119.49 159.16H113.927V164.724H119.49V159.16Z" fill="black"/>
<path d="M152.872 159.16H147.308V164.724H152.872V159.16Z" fill="black"/>
<path d="M158.436 159.16H152.872V164.724H158.436V159.16Z" fill="black"/>
</g>
</g>
</svg>
