<svg width="34" height="34" viewBox="0 0 34 34" fill="none" xmlns="http://www.w3.org/2000/svg">
<g id="elements">
<g id="Icon">
<path fill-rule="evenodd" clip-rule="evenodd" d="M6.91772 0.750003C5.80965 0.749944 4.85483 0.749893 4.09027 0.852685C3.27087 0.962849 2.48544 1.21128 1.84836 1.84836C1.21128 2.48544 0.962849 3.27087 0.852685 4.09027C0.749893 4.85482 0.749944 5.80956 0.750003 6.91763V7.0823C0.749944 8.19037 0.749893 9.14519 0.852685 9.90975C0.962849 10.7291 1.21128 11.5146 1.84836 12.1517C2.48544 12.7887 3.27087 13.0372 4.09027 13.1473C4.85485 13.2501 5.80962 13.2501 6.91773 13.25H7.08229C8.1904 13.2501 9.14517 13.2501 9.90975 13.1473C10.7291 13.0372 11.5146 12.7887 12.1517 12.1517C12.7887 11.5146 13.0372 10.7291 13.1473 9.90975C13.2501 9.14517 13.2501 8.1904 13.25 7.08229V6.91773C13.2501 5.80962 13.2501 4.85485 13.1473 4.09027C13.0372 3.27087 12.7887 2.48544 12.1517 1.84836C11.5146 1.21128 10.7291 0.962849 9.90975 0.852685C9.1452 0.749893 8.19046 0.749944 7.08239 0.750003H6.91772ZM3.61613 3.61613C3.71128 3.52097 3.88122 3.40328 4.42339 3.33039C5.00152 3.25266 5.78616 3.25001 7.00001 3.25001C8.21386 3.25001 8.9985 3.25266 9.57663 3.33039C10.1188 3.40328 10.2887 3.52097 10.3839 3.61613C10.479 3.71128 10.5967 3.88121 10.6696 4.42339C10.7474 5.00152 10.75 5.78616 10.75 7.00001C10.75 8.21386 10.7474 8.9985 10.6696 9.57663C10.5967 10.1188 10.479 10.2887 10.3839 10.3839C10.2887 10.479 10.1188 10.5967 9.57663 10.6696C8.9985 10.7474 8.21386 10.75 7.00001 10.75C5.78616 10.75 5.00152 10.7474 4.42339 10.6696C3.88121 10.5967 3.71128 10.479 3.61613 10.3839C3.52097 10.2887 3.40329 10.1188 3.33039 9.57663C3.25266 8.9985 3.25001 8.21386 3.25001 7.00001C3.25001 5.78616 3.25266 5.00152 3.33039 4.42339C3.40329 3.88121 3.52097 3.71128 3.61613 3.61613Z" fill="#161616"/>
<path fill-rule="evenodd" clip-rule="evenodd" d="M6.91772 20.75C5.80965 20.7499 4.85482 20.7499 4.09027 20.8527C3.27087 20.9628 2.48544 21.2113 1.84836 21.8484C1.21128 22.4854 0.962849 23.2709 0.852685 24.0903C0.749893 24.8548 0.749944 25.8096 0.750003 26.9176V27.0823C0.749944 28.1904 0.749893 29.1452 0.852685 29.9097C0.962849 30.7291 1.21128 31.5146 1.84836 32.1517C2.48544 32.7887 3.27087 33.0372 4.09027 33.1473C4.85483 33.2501 5.80958 33.2501 6.91766 33.25H7.08229C8.19037 33.2501 9.14519 33.2501 9.90975 33.1473C10.7291 33.0372 11.5146 32.7887 12.1517 32.1517C12.7887 31.5146 13.0372 30.7291 13.1473 29.9097C13.2501 29.1452 13.2501 28.1904 13.25 27.0823V26.9177C13.2501 25.8096 13.2501 24.8548 13.1473 24.0903C13.0372 23.2709 12.7887 22.4854 12.1517 21.8484C11.5146 21.2113 10.7291 20.9628 9.90975 20.8527C9.1452 20.7499 8.19046 20.7499 7.0824 20.75H6.91772ZM3.61613 23.6161C3.71128 23.521 3.88122 23.4033 4.42339 23.3304C5.00152 23.2527 5.78616 23.25 7.00001 23.25C8.21386 23.25 8.9985 23.2527 9.57663 23.3304C10.1188 23.4033 10.2887 23.521 10.3839 23.6161C10.479 23.7113 10.5967 23.8812 10.6696 24.4234C10.7474 25.0015 10.75 25.7862 10.75 27C10.75 28.2139 10.7474 28.9985 10.6696 29.5766C10.5967 30.1188 10.479 30.2887 10.3839 30.3839C10.2887 30.479 10.1188 30.5967 9.57663 30.6696C8.9985 30.7474 8.21386 30.75 7.00001 30.75C5.78616 30.75 5.00152 30.7474 4.42339 30.6696C3.88121 30.5967 3.71128 30.479 3.61613 30.3839C3.52097 30.2887 3.40329 30.1188 3.33039 29.5766C3.25266 28.9985 3.25001 28.2139 3.25001 27C3.25001 25.7862 3.25266 25.0015 3.33039 24.4234C3.40329 23.8812 3.52097 23.7113 3.61613 23.6161Z" fill="#161616"/>
<path d="M0.750003 17C0.750003 16.3096 1.30965 15.75 2 15.75L12 15.75C12.6904 15.75 13.25 16.3096 13.25 17C13.25 17.6904 12.6904 18.25 12 18.25L2 18.25C1.30965 18.25 0.750003 17.6904 0.750003 17Z" fill="#161616"/>
<path d="M18.25 2C18.25 1.30965 17.6904 0.750003 17 0.750003C16.3096 0.750003 15.75 1.30965 15.75 2V10.3333C15.75 11.0237 16.3096 11.5833 17 11.5833C17.6904 11.5833 18.25 11.0237 18.25 10.3333V2Z" fill="#161616"/>
<path fill-rule="evenodd" clip-rule="evenodd" d="M26.9177 0.750003H27.0823C28.1904 0.749944 29.1452 0.749893 29.9098 0.852685C30.7291 0.962849 31.5146 1.21128 32.1517 1.84836C32.7887 2.48544 33.0372 3.27087 33.1473 4.09027C33.2501 4.85483 33.2501 5.80958 33.25 6.91766V7.08229C33.2501 8.19037 33.2501 9.14519 33.1473 9.90975C33.0372 10.7291 32.7887 11.5146 32.1517 12.1517C31.5146 12.7887 30.7291 13.0372 29.9098 13.1473C29.1452 13.2501 28.1904 13.2501 27.0823 13.25H26.9177C25.8096 13.2501 24.8548 13.2501 24.0903 13.1473C23.2709 13.0372 22.4854 12.7887 21.8484 12.1517C21.2113 11.5146 20.9629 10.7291 20.8527 9.90975C20.7499 9.14518 20.7499 8.19043 20.75 7.08234V6.91772C20.7499 5.80963 20.7499 4.85484 20.8527 4.09027C20.9629 3.27087 21.2113 2.48544 21.8484 1.84836C22.4854 1.21128 23.2709 0.962849 24.0903 0.852685C24.8548 0.749893 25.8097 0.749944 26.9177 0.750003ZM24.4234 3.33039C23.8812 3.40328 23.7113 3.52097 23.6161 3.61613C23.521 3.71128 23.4033 3.88121 23.3304 4.42339C23.2527 5.00152 23.25 5.78616 23.25 7.00001C23.25 8.21386 23.2527 8.9985 23.3304 9.57663C23.4033 10.1188 23.521 10.2887 23.6161 10.3839C23.7113 10.479 23.8812 10.5967 24.4234 10.6696C25.0015 10.7474 25.7862 10.75 27 10.75C28.2139 10.75 28.9985 10.7474 29.5766 10.6696C30.1188 10.5967 30.2887 10.479 30.3839 10.3839C30.4791 10.2887 30.5967 10.1188 30.6696 9.57663C30.7474 8.9985 30.75 8.21386 30.75 7.00001C30.75 5.78616 30.7474 5.00152 30.6696 4.42339C30.5967 3.88121 30.4791 3.71128 30.3839 3.61613C30.2887 3.52097 30.1188 3.40328 29.5766 3.33039C28.9985 3.25266 28.2139 3.25001 27 3.25001C25.7862 3.25001 25.0015 3.25266 24.4234 3.33039Z" fill="#161616"/>
<path d="M21.9177 15.75C20.8096 15.7499 19.8548 15.7499 19.0903 15.8527C18.2709 15.9628 17.4854 16.2113 16.8484 16.8484C16.2113 17.4854 15.9629 18.2709 15.8527 19.0903C15.7499 19.8548 15.7499 20.8096 15.75 21.9177L15.75 22C15.75 22.6904 16.3097 23.25 17 23.25C17.6904 23.25 18.25 22.6904 18.25 22C18.25 20.7862 18.2527 20.0015 18.3304 19.4234C18.4033 18.8812 18.521 18.7113 18.6161 18.6161C18.7113 18.521 18.8812 18.4033 19.4234 18.3304C20.0015 18.2527 20.7862 18.25 22 18.25H32C32.6904 18.25 33.25 17.6904 33.25 17C33.25 16.3097 32.6904 15.75 32 15.75L21.9177 15.75Z" fill="#161616"/>
<path d="M27 23.25C28.2139 23.25 28.9984 23.2527 29.5764 23.3305C30.1182 23.4034 30.288 23.5212 30.3833 23.6165C30.4787 23.7122 30.5966 23.8829 30.6696 24.4264C30.7474 25.0057 30.75 25.7917 30.75 27.0072C30.75 28.2227 30.7474 29.0088 30.6696 29.5881C30.5966 30.1315 30.4787 30.3023 30.3833 30.3979C30.2334 30.548 29.942 30.711 28.629 30.7506C27.9389 30.7714 27.3964 31.3477 27.4172 32.0377C27.4381 32.7278 28.0143 33.2703 28.7044 33.2494C29.9804 33.2109 31.2333 33.0847 32.1523 32.1644C32.7891 31.5267 33.0373 30.7408 33.1474 29.9207C33.2501 29.1553 33.2501 28.1994 33.25 27.0895V26.925C33.2501 25.8152 33.2501 24.8592 33.1474 24.0938C33.0373 23.2737 32.7891 22.4877 32.1523 21.8501C31.5153 21.2121 30.7297 20.9632 29.91 20.8528C29.1453 20.7499 28.1904 20.7499 27.0824 20.75L27 20.75C26.3097 20.75 25.75 21.3097 25.75 22C25.75 22.6904 26.3097 23.25 27 23.25Z" fill="#161616"/>
<path d="M23.25 22C23.25 21.3097 22.6904 20.75 22 20.75C21.3097 20.75 20.75 21.3097 20.75 22V24.5C20.75 25.9188 21.1494 27.1048 22.2973 27.7455C22.7923 28.0218 23.331 28.1356 23.8169 28.1905C24.3034 28.2454 24.8309 28.25 25.3333 28.25C25.5635 28.25 25.75 28.4366 25.75 28.6667C25.75 29.357 26.3097 29.9167 27 29.9167C27.6904 29.9167 28.25 29.357 28.25 28.6667C28.25 27.0558 26.9442 25.75 25.3333 25.75C24.8221 25.75 24.4262 25.7434 24.0976 25.7063C23.7685 25.6691 23.6006 25.6099 23.5157 25.5625L23.5131 25.5614C23.4839 25.5492 23.25 25.4522 23.25 24.5V22Z" fill="#161616"/>
<path d="M18.25 26.6154C18.25 25.925 17.6904 25.3654 17 25.3654C16.3097 25.3654 15.75 25.925 15.75 26.6154V31.2308C15.75 31.9211 16.3097 32.4808 17 32.4808C17.6904 32.4808 18.25 31.9211 18.25 31.2308V26.6154Z" fill="#161616"/>
<path d="M22 30.75C21.3097 30.75 20.75 31.3097 20.75 32C20.75 32.6904 21.3097 33.25 22 33.25H23.6667C24.357 33.25 24.9167 32.6904 24.9167 32C24.9167 31.3097 24.357 30.75 23.6667 30.75H22Z" fill="#161616"/>
</g>
</g>
</svg>
