<svg width="30" height="25" viewBox="0 0 30 25" fill="none" xmlns="http://www.w3.org/2000/svg">
<g id="elements">
<g id="Icon">
<path fill-rule="evenodd" clip-rule="evenodd" d="M12.35 1.65728C11.789 1.65721 11.2745 1.65715 10.8561 1.71341C10.3953 1.77537 9.90823 1.92113 9.50764 2.32172C9.10706 2.72231 8.96129 3.20936 8.89934 3.67017C8.84308 4.08862 8.84314 4.60303 8.8432 5.16409L8.8432 20.8357C8.84314 21.3967 8.84308 21.9111 8.89934 22.3296C8.96129 22.7904 9.10706 23.2775 9.50764 23.678C9.90823 24.0786 10.3953 24.2244 10.8561 24.2863C11.2745 24.3426 11.789 24.3425 12.35 24.3425L12.466 24.3425C13.0271 24.3425 13.5415 24.3426 13.96 24.2863C14.4208 24.2244 14.9078 24.0786 15.3084 23.678C15.709 23.2775 15.8548 22.7904 15.9167 22.3296C15.973 21.9111 15.9729 21.3967 15.9728 20.8357L15.9728 5.1641C15.9729 4.60308 15.973 4.0886 15.9167 3.67016C15.8548 3.20936 15.709 2.7223 15.3084 2.32172C14.9078 1.92113 14.4208 1.77537 13.96 1.71342C13.5415 1.65716 13.0271 1.65722 12.466 1.65728L12.35 1.65728ZM10.8857 3.69488L10.8826 3.69667L10.8808 3.69982L10.8777 3.70623L10.8747 3.71317C10.8631 3.7414 10.8433 3.80409 10.8264 3.92926C10.7897 4.20242 10.7877 4.58354 10.7877 5.2221L10.7877 20.7777C10.7877 21.4162 10.7897 21.7973 10.8264 22.0705C10.8433 22.1957 10.8631 22.2584 10.8747 22.2866C10.8774 22.2931 10.8795 22.2974 10.8808 22.2999L10.8826 22.3031L10.8857 22.3049C10.8883 22.3062 10.8925 22.3083 10.8991 22.311C10.9273 22.3226 10.99 22.3424 11.1152 22.3592C11.3883 22.396 11.7695 22.398 12.408 22.398C13.0466 22.398 13.4277 22.396 13.7009 22.3592C13.826 22.3424 13.8887 22.3226 13.917 22.311C13.9235 22.3083 13.9278 22.3062 13.9303 22.3049L13.9335 22.3031L13.9352 22.2999C13.9365 22.2974 13.9386 22.2931 13.9413 22.2866C13.953 22.2584 13.9728 22.1957 13.9896 22.0705C14.0263 21.7973 14.0284 21.4162 14.0284 20.7777L14.0284 5.2221C14.0284 4.58354 14.0263 4.20242 13.9896 3.92926C13.9728 3.80409 13.953 3.7414 13.9413 3.71317L13.9368 3.70288L13.9352 3.69982L13.9335 3.69667L13.9303 3.69488L13.9225 3.69114L13.917 3.68879C13.8887 3.67717 13.826 3.65735 13.7009 3.64052C13.4277 3.6038 13.0466 3.60173 12.408 3.60173C11.7695 3.60173 11.3883 3.60379 11.1152 3.64052C10.99 3.65735 10.9273 3.67717 10.8991 3.68879C10.8925 3.69148 10.8882 3.69357 10.8857 3.69488Z" fill="#161616"/>
<path d="M2.03764 1.65728C2.57458 1.65728 3.00986 2.09256 3.00987 2.6295L3.00986 23.3702C3.00986 23.9072 2.57459 24.3425 2.03764 24.3425C1.5007 24.3425 1.06542 23.9072 1.06542 23.3702L1.06542 2.6295C1.06542 2.09256 1.5007 1.65728 2.03764 1.65728Z" fill="#161616"/>
<path d="M5.92653 1.65728C6.46347 1.65728 6.89875 2.09256 6.89875 2.6295L6.89875 23.3702C6.89875 23.9072 6.46348 24.3425 5.92653 24.3425C5.38959 24.3425 4.95431 23.9072 4.95431 23.3702L4.95431 2.6295C4.95431 2.09256 5.38959 1.65728 5.92653 1.65728Z" fill="#161616"/>
<path d="M18.8895 1.65728C19.4264 1.65728 19.8617 2.09256 19.8617 2.6295L19.8617 23.3702C19.8617 23.9072 19.4264 24.3425 18.8895 24.3425C18.3526 24.3425 17.9173 23.9072 17.9173 23.3702L17.9173 2.6295C17.9173 2.09256 18.3526 1.65728 18.8895 1.65728Z" fill="#161616"/>
<path fill-rule="evenodd" clip-rule="evenodd" d="M25.313 1.65728C24.7519 1.65722 24.2375 1.65715 23.8191 1.71341C23.3582 1.77537 22.8712 1.92113 22.4706 2.32172C22.07 2.72231 21.9243 3.20936 21.8623 3.67016C21.806 4.08862 21.8061 4.60304 21.8062 5.16409L21.8062 20.8357C21.8061 21.3967 21.806 21.9111 21.8623 22.3296C21.9243 22.7904 22.07 23.2775 22.4706 23.678C22.8712 24.0786 23.3582 24.2244 23.8191 24.2863C24.2375 24.3426 24.7519 24.3425 25.313 24.3425L25.429 24.3425C25.99 24.3425 26.5045 24.3426 26.9229 24.2863C27.3837 24.2244 27.8708 24.0786 28.2714 23.678C28.672 23.2775 28.8177 22.7904 28.8797 22.3296C28.9359 21.9112 28.9359 21.3968 28.9358 20.8357L28.9358 5.1641C28.9359 4.60307 28.9359 4.08861 28.8797 3.67017C28.8177 3.20936 28.672 2.72231 28.2714 2.32172C27.8708 1.92113 27.3837 1.77537 26.9229 1.71342C26.5045 1.65716 25.9901 1.65721 25.429 1.65728L25.313 1.65728ZM23.8487 3.69488L23.8456 3.69667L23.8438 3.69982C23.8425 3.70233 23.8404 3.70663 23.8377 3.71317C23.8261 3.7414 23.8062 3.80409 23.7894 3.92926C23.7527 4.20242 23.7506 4.58354 23.7506 5.2221L23.7506 20.7777C23.7506 21.4162 23.7527 21.7973 23.7894 22.0705C23.8062 22.1957 23.8261 22.2584 23.8377 22.2866C23.8404 22.2931 23.8425 22.2974 23.8438 22.2999L23.8456 22.3031L23.8487 22.3049C23.8512 22.3062 23.8555 22.3083 23.8621 22.311C23.8903 22.3226 23.953 22.3424 24.0781 22.3592C24.3513 22.396 24.7324 22.398 25.371 22.398C26.0096 22.398 26.3907 22.396 26.6638 22.3592C26.789 22.3424 26.8517 22.3226 26.8799 22.311C26.8865 22.3083 26.8908 22.3062 26.8933 22.3049L26.8964 22.3031L26.8982 22.2999C26.8995 22.2974 26.9016 22.2931 26.9043 22.2866C26.9159 22.2584 26.9357 22.1957 26.9526 22.0705C26.9893 21.7973 26.9914 21.4162 26.9914 20.7777L26.9914 5.2221C26.9914 4.58354 26.9893 4.20242 26.9526 3.92926C26.9357 3.80409 26.9159 3.7414 26.9043 3.71317C26.9016 3.70663 26.8995 3.70233 26.8982 3.69982L26.8964 3.69667L26.8933 3.69488C26.8908 3.69357 26.8865 3.69148 26.8799 3.68879C26.8517 3.67717 26.789 3.65735 26.6638 3.64052C26.3907 3.6038 26.0096 3.60173 25.371 3.60173C24.7324 3.60173 24.3513 3.6038 24.0781 3.64052C23.953 3.65735 23.8903 3.67717 23.8621 3.68879C23.8555 3.69148 23.8512 3.69357 23.8487 3.69488Z" fill="#161616"/>
</g>
</g>
</svg>
