<svg width="12" height="12" viewBox="0 0 12 12" fill="none" xmlns="http://www.w3.org/2000/svg">
<g id="elements">
<path id="Icon" fill-rule="evenodd" clip-rule="evenodd" d="M0.532836 0.421508C0.749794 0.20455 1.10155 0.20455 1.31851 0.421508L6.11086 5.21386L10.9032 0.421508C11.1202 0.20455 11.4719 0.20455 11.6889 0.421508C11.9058 0.638465 11.9058 0.990224 11.6889 1.20718L6.89653 5.99953L11.6889 10.7919C11.9058 11.0088 11.9058 11.3606 11.6889 11.5776C11.4719 11.7945 11.1202 11.7945 10.9032 11.5776L6.11086 6.7852L1.31851 11.5776C1.10155 11.7945 0.749794 11.7945 0.532836 11.5776C0.315878 11.3606 0.315878 11.0088 0.532836 10.7919L5.32518 5.99953L0.532836 1.20718C0.315878 0.990224 0.315878 0.638465 0.532836 0.421508Z" fill="#D92D20"/>
</g>
</svg>
