<svg width="37" height="36" viewBox="0 0 37 36" fill="none" xmlns="http://www.w3.org/2000/svg">
<g id="elements">
<path id="Icon" fill-rule="evenodd" clip-rule="evenodd" d="M0.582031 18.0007C0.582031 27.8957 8.6037 35.9173 18.4987 35.9173C28.3937 35.9173 36.4154 27.8957 36.4154 18.0007C36.4154 8.10565 28.3937 0.0839844 18.4987 0.0839844C8.6037 0.0839844 0.582031 8.10565 0.582031 18.0007ZM26.292 11.7723C26.9704 12.394 27.0154 13.4489 26.3937 14.1273L17.2271 24.1273C16.9204 24.4623 16.4887 24.6573 16.0354 24.6673C15.5804 24.6773 15.142 24.5007 14.8204 24.179L10.6537 20.0124C10.002 19.3624 10.002 18.3056 10.6537 17.6556C11.3037 17.0039 12.3604 17.0039 13.0104 17.6556L15.947 20.5907L23.937 11.874C24.5587 11.1957 25.6137 11.1506 26.292 11.7723Z" fill="#079455"/>
</g>
</svg>
