<svg width="40" height="40" viewBox="0 0 40 40" fill="none" xmlns="http://www.w3.org/2000/svg">
<path fill-rule="evenodd" clip-rule="evenodd" d="M16.2496 37.4122C16.7068 37.7413 17.1969 37.8642 17.6629 37.9173H22.3371C22.8031 37.8642 23.2932 37.7413 23.7504 37.4122C24.2075 37.0832 24.4788 36.6583 24.6763 36.2343C24.8537 35.8535 25.7474 33.1859 25.7474 33.1859C25.7474 33.1859 26.184 32.4469 26.5426 32.2117C27.2468 31.7499 27.9573 31.6496 28.4202 31.7499C28.4202 31.7499 31.5559 32.6327 31.9988 32.7028C32.4913 32.7808 33.0302 32.7907 33.5873 32.5649C34.1443 32.3391 34.5233 31.9572 34.8217 31.559L37.2193 27.4216C37.4069 26.9897 37.5454 26.502 37.4861 25.9395C37.4268 25.377 37.1897 24.9287 36.9159 24.545C36.6701 24.2005 34.5986 21.8946 34.2402 21.4974C34.2402 21.4974 33.8068 20.8328 33.8068 20.0004C33.8068 19.0258 34.2402 18.5037 34.2402 18.5037C34.2402 18.5037 36.6701 15.8006 36.9159 15.4561C37.1897 15.0725 37.4268 14.6242 37.4861 14.0617C37.5454 13.4992 37.407 13.0115 37.2193 12.5795C37.0507 12.1916 34.8217 8.44211 34.8217 8.44211C34.5233 8.04391 34.1443 7.66206 33.5873 7.43628C33.0302 7.21043 32.4914 7.22037 31.9988 7.29831C31.556 7.36839 28.9701 8.09562 28.4201 8.25124C28.4201 8.25124 27.5379 8.44211 26.5427 7.78947C26.1841 7.55428 25.9062 7.2142 25.7474 6.81519C25.7474 6.81519 24.8537 4.14781 24.6763 3.767C24.4788 3.34303 24.2075 2.91811 23.7504 2.58912C23.2932 2.25999 22.8031 2.13712 22.3371 2.08398H17.6629C17.1969 2.13712 16.7068 2.25999 16.2496 2.58912C15.7925 2.91811 15.5212 3.34303 15.3237 3.767C15.1463 4.14781 14.2526 6.81519 14.2526 6.81519C14.0938 7.2142 13.8159 7.55428 13.4573 7.78947C12.4621 8.44211 11.5799 8.25124 11.5799 8.25124C11.0299 8.09562 8.44401 7.36839 8.00115 7.29831C7.50863 7.22037 6.96982 7.21043 6.41266 7.43628C5.85569 7.66206 5.4767 8.04391 5.17831 8.44211C5.17831 8.44211 2.94928 12.1916 2.78072 12.5795C2.59304 13.0115 2.4546 13.4992 2.51388 14.0617C2.57317 14.6242 2.81032 15.0725 3.08405 15.4561C3.32985 15.8006 5.75976 18.5037 5.75976 18.5037C5.75976 18.5037 6.19319 19.0258 6.19319 20.0004C6.19319 20.8328 5.7598 21.4974 5.7598 21.4974C5.40139 21.8946 3.32985 24.2005 3.08406 24.545C2.81032 24.9287 2.57317 25.377 2.51388 25.9395C2.4546 26.502 2.59305 26.9897 2.78073 27.4216L5.17829 31.559C5.47668 31.9572 5.85568 32.3391 6.41268 32.5649C6.96984 32.7907 7.50866 32.7808 8.00119 32.7028C8.44406 32.6327 11.5798 31.7499 11.5798 31.7499C12.0427 31.6496 12.7532 31.7499 13.4574 32.2117C13.816 32.4469 14.2526 33.1859 14.2526 33.1859C14.2526 33.1859 15.1463 35.8535 15.3237 36.2343C15.5212 36.6583 15.7925 37.0832 16.2496 37.4122ZM20.0326 25.834C23.2542 25.834 25.8659 23.2223 25.8659 20.0007C25.8659 16.779 23.2542 14.1673 20.0326 14.1673C16.8109 14.1673 14.1992 16.779 14.1992 20.0007C14.1992 23.2223 16.8109 25.834 20.0326 25.834Z" fill="#15B79E"/>
</svg>
