<svg width="36" height="36" viewBox="0 0 36 36" fill="none" xmlns="http://www.w3.org/2000/svg">
<path fill-rule="evenodd" clip-rule="evenodd" d="M18.0319 10.916C14.1199 10.916 10.9486 14.0873 10.9486 17.9993C10.9486 21.9114 14.1199 25.0827 18.0319 25.0827C21.9439 25.0827 25.1152 21.9114 25.1152 17.9993C25.1152 14.0873 21.9439 10.916 18.0319 10.916ZM13.4486 17.9993C13.4486 15.468 15.5006 13.416 18.0319 13.416C20.5632 13.416 22.6152 15.468 22.6152 17.9993C22.6152 20.5307 20.5632 22.5827 18.0319 22.5827C15.5006 22.5827 13.4486 20.5307 13.4486 17.9993Z" fill="#252B37"/>
<path fill-rule="evenodd" clip-rule="evenodd" d="M19.0914 0.095708H17.1157C16.5879 0.0956426 16.0919 0.0955813 15.6762 0.143136C15.2129 0.196126 14.7258 0.318676 14.2713 0.646936C13.8169 0.975051 13.5472 1.39885 13.3509 1.8217C13.1746 2.2015 13.0179 2.67269 12.851 3.17462L12.8324 3.23037L12.2862 4.86181C12.1283 5.25978 11.8521 5.59895 11.4956 5.83352L10.9916 6.12431C10.5698 6.33419 10.0894 6.39399 9.62937 6.29407L7.62883 5.73059L7.57005 5.71391C7.02336 5.5587 6.51214 5.41356 6.07192 5.34366C5.58233 5.26593 5.04673 5.25601 4.49288 5.48127C3.93924 5.70645 3.5625 6.08729 3.26588 6.48443C2.99901 6.84176 2.73352 7.30262 2.44941 7.79583L1.56605 9.32886C1.29988 9.79064 1.05012 10.224 0.882568 10.6109C0.696006 11.0417 0.558382 11.5282 0.617311 12.0891C0.676249 12.6501 0.911985 13.0973 1.18409 13.4799C1.42843 13.8235 1.76282 14.1953 2.1191 14.5914L2.15646 14.6329L2.15866 14.6354L3.84388 16.5194C4.05452 16.8048 4.27472 17.4251 4.27472 18.0121C4.27472 18.5997 4.05456 19.2198 3.84391 19.5052L2.15866 21.3893L2.15647 21.3917L2.1191 21.4333C1.76283 21.8294 1.42843 22.2012 1.1841 22.5447C0.91199 22.9273 0.676252 23.3745 0.617314 23.9355C0.558381 24.4965 0.696011 24.9829 0.882573 25.4137C1.05012 25.8007 1.29989 26.234 1.56605 26.6958L2.4494 28.2288C2.7335 28.722 2.99899 29.1828 3.26586 29.5402C3.56247 29.9373 3.93923 30.3182 4.4929 30.5433C5.04675 30.7686 5.58236 30.7587 6.07196 30.6809C6.51219 30.611 7.02342 30.4659 7.57012 30.3106L7.6279 30.2942L9.62928 29.7305C10.0894 29.6305 10.5699 29.6904 10.9918 29.9003L11.4957 30.1911C11.8521 30.4257 12.1283 30.7649 12.2861 31.1628L12.8324 32.7944L12.851 32.8502C13.0179 33.3521 13.1746 33.8233 13.3509 34.2031C13.5472 34.6259 13.8169 35.0497 14.2712 35.3778C14.7258 35.7061 15.2129 35.8286 15.6762 35.8816C16.0919 35.9292 16.5879 35.9291 17.1158 35.9291H19.0914C19.6192 35.9291 20.1153 35.9292 20.531 35.8816C20.9942 35.8286 21.4814 35.7061 21.9359 35.3778C22.3903 35.0497 22.6599 34.6259 22.8562 34.2031C23.0326 33.8233 23.1893 33.3521 23.3562 32.8502L23.3747 32.7944L23.9211 31.1628C24.0789 30.7649 24.355 30.4257 24.7115 30.1911L25.2153 29.9003C25.6373 29.6904 26.1177 29.6305 26.5779 29.7305L28.5793 30.2942L28.6371 30.3107C29.1837 30.4659 29.695 30.611 30.1352 30.6809C30.6248 30.7587 31.1604 30.7686 31.7143 30.5433C32.2679 30.3182 32.6447 29.9373 32.9413 29.5402C33.2082 29.1828 33.4737 28.722 33.7578 28.2288L34.6411 26.6958C34.9072 26.2341 35.157 25.8006 35.3246 25.4137C35.5112 24.9829 35.6488 24.4965 35.5899 23.9355C35.5309 23.3745 35.2952 22.9273 35.0231 22.5447C34.7788 22.2012 34.4444 21.8294 34.0881 21.4333L34.0507 21.3917L32.3633 19.5052C32.1526 19.2198 31.9324 18.5997 31.9324 18.0121C31.9324 17.4251 32.1527 16.8048 32.3633 16.5194L34.0485 14.6354L34.0507 14.6329L34.0881 14.5914C34.4443 14.1953 34.7787 13.8235 35.0231 13.4799C35.2952 13.0973 35.5309 12.6501 35.5899 12.0891C35.6488 11.5281 35.5112 11.0417 35.3246 10.6109C35.1571 10.224 34.9073 9.79069 34.6412 9.32893L33.7577 7.79576C33.4736 7.30258 33.2081 6.84174 32.9413 6.48443C32.6447 6.08729 32.2679 5.70645 31.7143 5.48127C31.1604 5.25601 30.6248 5.26593 30.1352 5.34366C29.695 5.41356 29.1838 5.5587 28.6371 5.71391L28.5793 5.73031L26.5778 6.29407C26.1178 6.39399 25.6374 6.33419 25.2155 6.12431L24.7116 5.83352C24.3551 5.59894 24.0789 5.25977 23.921 4.8618L23.374 3.22807L23.3562 3.17455C23.1893 2.67266 23.0326 2.20148 22.8562 1.8217C22.6599 1.39885 22.3903 0.975051 21.9359 0.646936C21.4814 0.318676 20.9942 0.196126 20.531 0.143136C20.1153 0.0955813 19.6193 0.0956426 19.0914 0.095708ZM15.7335 2.67487L15.7349 2.67368C15.7349 2.67368 15.7433 2.6694 15.7564 2.66506C15.7848 2.65566 15.8447 2.64016 15.9603 2.62694C16.2167 2.59761 16.5671 2.59571 17.1746 2.59571H19.0326C19.64 2.59571 19.9905 2.59761 20.2469 2.62694C20.3625 2.64016 20.4224 2.65566 20.4508 2.66506C20.4639 2.6694 20.4722 2.67368 20.4722 2.67368L20.4736 2.67487C20.4736 2.67487 20.4793 2.68059 20.4876 2.69183C20.5057 2.71613 20.5395 2.76852 20.5887 2.87449C20.6978 3.10932 20.8105 3.44224 21.0026 4.01954L21.5685 5.70973L21.5781 5.73491C21.9284 6.64802 22.5613 7.4253 23.3847 7.95267L23.4091 7.96829L24.022 8.32193L24.0491 8.33585C25.0095 8.8293 26.1133 8.96698 27.1654 8.72436L27.1945 8.71763L29.2595 8.13602C29.8874 7.95784 30.2527 7.85634 30.5273 7.81274C30.6515 7.79302 30.7179 7.79236 30.7495 7.79427C30.7641 7.79515 30.7714 7.79675 30.7714 7.79675L30.7735 7.79759C30.7735 7.79759 30.78 7.80171 30.7912 7.81132C30.8154 7.83224 30.8628 7.87935 30.9383 7.98042C31.1051 8.20373 31.2966 8.53193 31.6228 9.0981L32.4455 10.5258C32.7515 11.0569 32.9267 11.3648 33.0304 11.6043C33.0773 11.7124 33.094 11.7731 33.1002 11.8032C33.103 11.8171 33.1036 11.8255 33.1036 11.8255L33.1035 11.8279L33.1031 11.8303C33.1031 11.8303 33.1008 11.8383 33.0952 11.8513C33.0829 11.8793 33.054 11.9351 32.9857 12.031C32.8346 12.2435 32.5992 12.5081 32.1895 12.9638L32.1873 12.9662L30.4434 14.9159L30.4197 14.9459C29.7957 15.7359 29.4324 16.9499 29.4324 18.0121C29.4324 19.0747 29.7955 20.2885 30.4197 21.0787L30.4434 21.1087L32.1895 23.0609C32.5992 23.5165 32.8346 23.7811 32.9857 23.9936C33.0539 24.0895 33.0829 24.1453 33.0952 24.1733C33.1008 24.1863 33.1031 24.1943 33.1031 24.1943L33.1035 24.1967L33.1036 24.1992C33.1036 24.1992 33.103 24.2075 33.1002 24.2215C33.094 24.2515 33.0773 24.3122 33.0304 24.4203C32.9267 24.6598 32.7515 24.9678 32.4455 25.4989L31.6228 26.9265C31.2966 27.4926 31.1051 27.8208 30.9383 28.0442C30.8628 28.1452 30.8154 28.1924 30.7912 28.2133C30.78 28.2229 30.7735 28.227 30.7735 28.227L30.7714 28.2279C30.7714 28.2279 30.7641 28.2294 30.7496 28.2303C30.7179 28.2322 30.6515 28.2316 30.5273 28.2119C30.2527 28.1683 29.8873 28.0667 29.2594 27.8885L27.1946 27.3069L27.1655 27.3002C26.1132 27.0575 25.0092 27.1953 24.0486 27.6889L24.0216 27.7028L23.4087 28.0565L23.3843 28.0721C22.5611 28.5995 21.9284 29.3767 21.5782 30.2897L21.5685 30.3149L21.0033 32.0029L21.0026 32.0052C20.8105 32.5825 20.6978 32.9154 20.5887 33.1503C20.5395 33.2562 20.5057 33.3086 20.4876 33.3329C20.4793 33.3442 20.4736 33.3499 20.4736 33.3499L20.4708 33.3519C20.4708 33.3519 20.4685 33.3531 20.464 33.3549C20.4607 33.3562 20.4563 33.3579 20.4508 33.3597C20.4224 33.3691 20.3625 33.3846 20.2469 33.3978C19.9905 33.4272 19.64 33.429 19.0326 33.429H17.1746C16.5671 33.429 16.2167 33.4272 15.9603 33.3978C15.8447 33.3846 15.7848 33.3691 15.7564 33.3597C15.7433 33.3554 15.7349 33.3511 15.7349 33.3511L15.7335 33.3499C15.7335 33.3499 15.7279 33.3442 15.7195 33.3329C15.7014 33.3086 15.6676 33.2562 15.6184 33.1503C15.5094 32.9154 15.3967 32.5825 15.2046 32.0052L14.6386 30.3149L14.629 30.2897C14.2788 29.3767 13.646 28.5995 12.8228 28.0721L12.7984 28.0565L12.1856 27.7028L12.1585 27.6889C11.198 27.1953 10.094 27.0575 9.0417 27.3002L9.01252 27.3069L6.94772 27.8885C6.31982 28.0667 5.95451 28.1683 5.6799 28.2119C5.5557 28.2316 5.48924 28.2322 5.45761 28.2303C5.44308 28.2294 5.43574 28.2279 5.43574 28.2279L5.43371 28.227C5.43371 28.227 5.42715 28.2229 5.416 28.2133C5.39175 28.1924 5.34436 28.1452 5.26887 28.0442C5.10207 27.8208 4.91057 27.4926 4.58433 26.9265L3.76171 25.4989C3.45569 24.9678 3.28043 24.6598 3.17672 24.4203C3.12991 24.3122 3.11314 24.2515 3.10697 24.2215C3.10412 24.2075 3.10358 24.1992 3.10358 24.1992L3.10363 24.1967L3.10409 24.1943C3.10409 24.1943 3.10633 24.1863 3.112 24.1733C3.12424 24.1453 3.15322 24.0895 3.22143 23.9936C3.37258 23.7811 3.60792 23.5165 4.01763 23.0609L4.01983 23.0584L5.76378 21.1087L5.78749 21.0787C6.41162 20.2885 6.77472 19.0747 6.77472 18.0121C6.77472 16.9499 6.41147 15.7359 5.78745 14.9459L5.76373 14.9159L4.01983 12.9662L4.01763 12.9638C3.60792 12.5081 3.37257 12.2435 3.22142 12.031C3.15321 11.9351 3.12424 11.8793 3.112 11.8513C3.10633 11.8383 3.10408 11.8303 3.10408 11.8303L3.10363 11.8279L3.10358 11.8255C3.10358 11.8255 3.10412 11.8171 3.10697 11.8032C3.11313 11.7731 3.12991 11.7124 3.17672 11.6043C3.28043 11.3648 3.45568 11.0569 3.76171 10.5258L4.58436 9.0981C4.9106 8.53193 5.1021 8.20373 5.26889 7.98042C5.34437 7.87935 5.39176 7.83224 5.416 7.81132C5.42715 7.80171 5.43371 7.79759 5.43371 7.79759L5.43575 7.79675C5.43575 7.79675 5.4431 7.79515 5.45762 7.79427C5.48925 7.79236 5.55571 7.79302 5.67991 7.81274C5.95451 7.85634 6.31981 7.95784 6.94771 8.13602L9.01261 8.71763L9.0418 8.72436C10.0939 8.96698 11.1977 8.8293 12.1581 8.33585L12.1852 8.32193L12.7981 7.96829L12.8225 7.95267C13.6459 7.4253 14.2788 6.64802 14.629 5.73491L14.6387 5.70973L15.2046 4.01954C15.3967 3.44224 15.5094 3.10932 15.6184 2.87449C15.6676 2.76852 15.7014 2.71613 15.7195 2.69183C15.7279 2.68059 15.7335 2.67487 15.7335 2.67487Z" fill="#252B37"/>
</svg>
